<?xml version="1.0" encoding="UTF-8"?>
<svg version="1.1" xmlns="http://www.w3.org/2000/svg" width="271" height="264">
<path d="M0 0 C-1 3 -1 3 -3.6315918 4.37182617 C-4.80890869 4.84080322 -5.98622559 5.30978027 -7.19921875 5.79296875 C-7.84847824 6.05567566 -8.49773773 6.31838257 -9.16667175 6.58905029 C-10.58596534 7.16199374 -12.00730183 7.7298956 -13.43035889 8.29342651 C-16.5156527 9.51553858 -19.59093371 10.76195902 -22.66699219 12.00709534 C-24.29378205 12.66539883 -25.92107154 13.32246883 -27.54882812 13.9783783 C-35.57014829 17.21441719 -43.54153726 20.56468268 -51.50698853 23.93545532 C-55.50074169 25.62544675 -59.49642115 27.31086885 -63.4921875 28.99609375 C-64.28416031 29.33017746 -65.07613312 29.66426117 -65.8921051 30.00846863 C-74.25054664 33.53174472 -82.62457784 37.0173292 -91 40.5 C-109.69194082 48.27334992 -128.3483127 56.13063645 -147 64 C-144.2284507 65.84769953 -142.09750608 66.75967855 -138.9765625 67.8125 C-102.71693369 80.29508608 -72.85546084 98.64098773 -45 125 C-44.319375 125.63808594 -43.63875 126.27617187 -42.9375 126.93359375 C-17.41260977 151.57220307 5.89433651 191.32320004 10 227 C-14.1409013 244.34568464 -46.03901839 248.7106371 -75.0625 245.375 C-110.38050994 239.26388849 -141.49582584 221.11409086 -162.5625 191.875 C-182.25870044 162.40029722 -190.18233805 128.16579909 -184 93 C-181.53042692 80.69550522 -177.60663314 69.21621559 -172 58 C-171.41605469 56.83082031 -170.83210938 55.66164063 -170.23046875 54.45703125 C-164.98484949 44.68361431 -158.26175834 36.33929381 -151 28 C-150.33484375 27.23042969 -149.6696875 26.46085937 -148.984375 25.66796875 C-127.06735719 2.2207087 -94.7725052 -11.37949246 -62.99609375 -12.93359375 C-42.75859933 -13.2698962 -17.35900644 -11.57267096 0 0 Z " fill="#0D84CE" transform="translate(193,17)"/>
<path d="M0 0 C3.21065624 2.29132643 5.96686366 5.08612755 8.8125 7.8125 C9.60076172 8.53759766 10.38902344 9.26269531 11.20117188 10.00976562 C11.94560547 10.71423828 12.69003906 11.41871094 13.45703125 12.14453125 C14.13741455 12.78753174 14.81779785 13.43053223 15.51879883 14.09301758 C17 16 17 16 17 20 C2.94701958 27.43775427 -11.16737319 34.75466919 -25.29406738 42.05102539 C-32.30409826 45.6723532 -39.30850119 49.30452308 -46.3125 52.9375 C-47.49934867 53.55306045 -48.68619762 54.16862036 -49.87304688 54.78417969 C-52.5820972 56.18932605 -55.29108672 57.59458945 -58 59 C-56.33630295 60.66972494 -54.66950151 62.33609333 -53 64 C-52.1028125 64.89460938 -51.205625 65.78921875 -50.28125 66.7109375 C-49.3634375 67.59007813 -48.445625 68.46921875 -47.5 69.375 C-46.12328125 70.71691406 -46.12328125 70.71691406 -44.71875 72.0859375 C-42.23853537 74.26738096 -42.23853537 74.26738096 -39.70654297 73.80664062 C-36.55329249 72.86686617 -33.88425699 71.55088178 -30.9765625 70.0078125 C-30.40220459 69.70604599 -29.82784668 69.40427948 -29.23608398 69.09336853 C-28.00364527 68.44557547 -26.7725823 67.79515943 -25.54278564 67.1423645 C-22.28623206 65.41479811 -19.01872748 63.70830087 -15.75 62.00390625 C-15.09287018 61.66107101 -14.43574036 61.31823578 -13.75869751 60.9650116 C-6.85658173 57.37974204 0.15574735 54.03931692 7.19824219 50.73974609 C13.99261724 47.53988534 20.54684301 44.03913472 27.0390625 40.265625 C30 39 30 39 32.625 38.8125 C36.44344403 40.72172202 37.60951796 43.99421798 39.375 47.75 C39.74238281 48.46671875 40.10976562 49.1834375 40.48828125 49.921875 C42.53354945 54.1204633 43.42041308 56.36957873 42 61 C40.24189758 62.59780884 40.24189758 62.59780884 37.9855957 63.95166016 C37.16926666 64.4567511 36.35293762 64.96184204 35.51187134 65.48223877 C34.6829538 65.98309998 33.85403625 66.48396118 33 67 C31.55581812 67.94312196 30.11581795 68.89268351 28.68041992 69.84912109 C27.19727886 70.82416099 25.71395574 71.798924 24.23046875 72.7734375 C22.58267977 73.85676699 20.93489339 74.94010045 19.28710938 76.0234375 C16.74023219 77.69738617 14.19327139 79.37120748 11.64624023 81.04492188 C6.80990594 84.22328496 1.97589398 87.40512839 -2.85601807 90.59020996 C-4.84645346 91.89903442 -6.84114601 93.20105501 -8.83740234 94.50097656 C-10.47056396 95.5717041 -10.47056396 95.5717041 -12.13671875 96.6640625 C-13.06572998 97.26943848 -13.99474121 97.87481445 -14.9519043 98.49853516 C-17.1112788 99.84177592 -17.1112788 99.84177592 -18 102 C-17.09726738 103.98542768 -17.09726738 103.98542768 -15.69140625 106.1328125 C-15.19189453 106.93847656 -14.69238281 107.74414062 -14.17773438 108.57421875 C-13.64470703 109.41597656 -13.11167969 110.25773437 -12.5625 111.125 C-12.03333984 111.97449219 -11.50417969 112.82398438 -10.95898438 113.69921875 C-9.64641442 115.80406066 -8.32653522 117.90394173 -7 120 C8.6737478 116.41297314 24.87489691 99.9881926 37.34228516 90.31396484 C41.13726233 87.37745312 44.97169686 84.60838883 49 82 C50.51410017 85.43442234 51.32376482 88.38745244 51.625 92.125 C51.73714844 93.39730469 51.73714844 93.39730469 51.8515625 94.6953125 C53.38153545 128.75734192 43.68805583 164.10647574 21 190 C18.63588825 192.442542 16.23659543 194.83277283 13.78515625 197.1875 C11.92810591 198.88628114 11.92810591 198.88628114 11 201 C9.34019613 202.01135003 7.6719557 203.00886837 6 204 C2.8862666 206.37776005 -0.18813364 208.80006608 -3.2578125 211.234375 C-4.16273438 211.81703125 -5.06765625 212.3996875 -6 213 C-6.99 212.67 -7.98 212.34 -9 212 C-9.05945801 211.30253662 -9.11891602 210.60507324 -9.18017578 209.88647461 C-12.30872219 174.67448316 -22.08728956 142.06153214 -43.73046875 113.67529297 C-44.9692198 112.04061803 -46.17340978 110.38475691 -47.375 108.72265625 C-59.15349597 92.75849129 -73.92075501 78.58038888 -90 67 C-90.83015625 66.38640625 -91.6603125 65.7728125 -92.515625 65.140625 C-100.06946176 59.68785542 -108.07436159 54.88714924 -116 50 C-114.98433746 47.08564184 -114.24103535 46.13212465 -111.49291992 44.62573242 C-110.41631104 44.20654541 -109.33970215 43.7873584 -108.23046875 43.35546875 C-107.31913429 42.99183228 -107.31913429 42.99183228 -106.38938904 42.62084961 C-105.04404902 42.08478408 -103.69636121 41.55458414 -102.34674072 41.02938843 C-98.5318112 39.54194658 -94.73730216 38.0039808 -90.94140625 36.46875 C-89.67940399 35.95963326 -89.67940399 35.95963326 -88.39190674 35.44023132 C-76.37969796 30.56812115 -64.50995818 25.36015947 -52.625 20.1875 C-50.37785425 19.211819 -48.13070266 18.23615143 -45.88354492 17.26049805 C-3.68557197 -1.08776391 -3.68557197 -1.08776391 0 0 Z " fill="#559E3D" transform="translate(214,29)"/>
<path d="M0 0 C0.33 0 0.66 0 1 0 C1 5.94 1 11.88 1 18 C1.99 18 2.98 18 4 18 C4.86032061 21.58816645 5.12643078 25.03806889 5.23901367 28.72070312 C6.11471941 55.13734138 12.42972668 82.56859658 30 103 C30.68964844 103.81082031 31.37929688 104.62164062 32.08984375 105.45703125 C51.52106065 127.68852897 81.9760316 148.49166421 112 152 C134.81296444 153.05003994 155.67586152 149.55347861 176.8671875 141.171875 C180 140 180 140 182 140 C181.67 137.69 181.34 135.38 181 133 C181.33 133.66 181.66 134.32 182 135 C182.99 135.33 183.98 135.66 185 136 C184.67 137.32 184.34 138.64 184 140 C185.32 140 186.64 140 188 140 C187.67 138.68 187.34 137.36 187 136 C187.66 136 188.32 136 189 136 C189 134.02 189 132.04 189 130 C186.03 129.01 186.03 129.01 183 128 C183.33 125.69 183.66 123.38 184 121 C184.99 120.67 185.98 120.34 187 120 C187.2165625 121.3921875 187.2165625 121.3921875 187.4375 122.8125 C187.92100111 126.00725111 187.92100111 126.00725111 189 129 C189.66 129 190.32 129 191 129 C191.66 132.3 192.32 135.6 193 139 C168.24058429 156.45335862 134.31180387 161.93857287 104.6640625 156.80859375 C69.19441027 148.98106922 38.70432606 131.210692 18.2265625 100.56640625 C-0.87789659 70.44014385 -7.59841024 35.04852292 0 0 Z " fill="#213778" transform="translate(10,105)"/>
<path d="M0 0 C0.33 0 0.66 0 1 0 C1 5.94 1 11.88 1 18 C1.99 18 2.98 18 4 18 C4.86032061 21.58816645 5.12643078 25.03806889 5.23901367 28.72070312 C6.11471941 55.13734138 12.42972668 82.56859658 30 103 C30.68964844 103.81082031 31.37929688 104.62164062 32.08984375 105.45703125 C36.69222995 110.72267873 41.57286647 115.48674512 46.8359375 120.08984375 C48.62869617 121.6722607 50.33443821 123.28608319 52 125 C50.35 124.67 48.7 124.34 47 124 C46.67 124.66 46.34 125.32 46 126 C46 125.34 46 124.68 46 124 C45.34 124 44.68 124 44 124 C44 124.99 44 125.98 44 127 C44.5775 127.04125 45.155 127.0825 45.75 127.125 C49.13312465 128.44065958 50.19222685 130.96552364 52 134 C48.44432128 132.42617499 45.68454865 130.27542117 42.6875 127.8125 C41.33205078 126.70841797 41.33205078 126.70841797 39.94921875 125.58203125 C15.25705363 103.96412245 0.46367109 73.40871234 -2.6875 40.875 C-3.56465663 27.15115359 -2.92052275 13.47124005 0 0 Z " fill="#06438E" transform="translate(10,105)"/>
<path d="M0 0 C2.0625 1.75 2.0625 1.75 4 4 C3.75 6.25 3.75 6.25 3 8 C3.66 8 4.32 8 5 8 C5.06058594 8.75925781 5.12117188 9.51851562 5.18359375 10.30078125 C5.26738281 11.29464844 5.35117187 12.28851563 5.4375 13.3125 C5.51871094 14.29863281 5.59992187 15.28476563 5.68359375 16.30078125 C5.91812559 19.09375599 5.91812559 19.09375599 7 22 C6.67 22.66 6.34 23.32 6 24 C8.64 24 11.28 24 14 24 C13.34 24.99 12.68 25.98 12 27 C11.60612212 29.32387947 11.26513915 31.65793749 11 34 C11.66 34 12.32 34 13 34 C13 35.98 13 37.96 13 40 C13.639375 40.2475 14.27875 40.495 14.9375 40.75 C17 42 17 42 17.75 44.125 C17.87375 45.053125 17.87375 45.053125 18 46 C18.99 46 19.98 46 21 46 C22.33333333 49.33333333 23.66666667 52.66666667 25 56 C25.99 56 26.98 56 28 56 C28 56.66 28 57.32 28 58 C28.66 58 29.32 58 30 58 C30.66 60.31 31.32 62.62 32 65 C33.1446875 65.0928125 33.1446875 65.0928125 34.3125 65.1875 C37.86874941 66.26264517 38.22864371 67.84236488 40 71 C42.54017963 72.63882557 45.05678651 73.36931139 48 74 C48 74.66 48 75.32 48 76 C50.97 75.505 50.97 75.505 54 75 C53.34 76.98 52.68 78.96 52 81 C57.55493924 82.02703748 57.55493924 82.02703748 63 81 C63 82.65 63 84.3 63 86 C63.61875 86.28875 64.2375 86.5775 64.875 86.875 C67 88 67 88 69 90 C72.59679066 89.67673447 72.59679066 89.67673447 76 89 C76.33 89.99 76.66 90.98 77 92 C77.66 92 78.32 92 79 92 C79 93.32 79 94.64 79 96 C81.78792353 96.92930784 84.22118075 97.01669507 87.125 96.9375 C91 97 91 97 93 99 C93.495 97.515 93.495 97.515 94 96 C94.33 96.99 94.66 97.98 95 99 C95.99 99 96.98 99 98 99 C98.33 100.32 98.66 101.64 99 103 C72.73572398 102.87640341 46.20466369 80.800224 28.25 63.5625 C12.0454157 46.82467527 0.11126097 23.75421726 0 0 Z " fill="#21BBF2" transform="translate(17,152)"/>
<path d="M0 0 C-1 3 -1 3 -4.17114258 4.60986328 C-5.57420227 5.19157148 -6.98243553 5.76089619 -8.39453125 6.3203125 C-9.13829514 6.62444061 -9.88205902 6.92856873 -10.64836121 7.24191284 C-13.03233622 8.21333711 -15.42233104 9.16893242 -17.8125 10.125 C-19.41249813 10.77638967 -21.01211275 11.42872221 -22.61132812 12.08203125 C-24.14288223 12.70398002 -25.67477277 13.32510108 -27.20703125 13.9453125 C-27.92695755 14.23697296 -28.64688385 14.52863342 -29.3886261 14.82913208 C-32.56729199 16.09901008 -35.66857069 17.22117084 -39 18 C-39 17.01 -39 16.02 -39 15 C-37.35 15 -35.7 15 -34 15 C-33.67 12.36 -33.34 9.72 -33 7 C-32.19175781 7.01160156 -31.38351563 7.02320312 -30.55078125 7.03515625 C-28.94783203 7.04869141 -28.94783203 7.04869141 -27.3125 7.0625 C-26.25675781 7.07410156 -25.20101562 7.08570312 -24.11328125 7.09765625 C-21.27589738 7.00865425 -18.7561081 6.64939838 -16 6 C-16.495 1.545 -16.495 1.545 -17 -3 C-17.99 -3.1546875 -17.99 -3.1546875 -19 -3.3125 C-22 -4 -22 -4 -25.5625 -5.5 C-30.09009194 -7.27993118 -34.5378852 -7.52956617 -39.36328125 -7.7890625 C-42 -8 -42 -8 -45 -9 C-49.50204676 -9.22905881 -54.00653058 -9.22832123 -58.51367188 -9.24023438 C-60.72825178 -9.24990503 -62.94188917 -9.28092266 -65.15625 -9.3125 C-66.57811952 -9.31903429 -67.99999565 -9.32428309 -69.421875 -9.328125 C-70.70674805 -9.3374707 -71.99162109 -9.34681641 -73.31542969 -9.35644531 C-77.55700176 -8.94611565 -80.17992917 -7.82739738 -84 -6 C-90.01119365 -4.30453513 -95.77707534 -3.76952131 -102 -4 C-77.3838106 -20.41079293 -23.99377934 -15.99585289 0 0 Z " fill="#45AAD3" transform="translate(193,17)"/>
<path d="M0 0 C0.33 0 0.66 0 1 0 C1 5.94 1 11.88 1 18 C1.99 18 2.98 18 4 18 C5.09329656 22.5358254 5.24847312 26.98634804 5.4375 31.625 C5.72543941 37.78615719 6.26521108 43.69851156 7.59765625 49.73828125 C8.03537736 52.19886883 8.06621534 54.50588898 8 57 C7.34 57 6.68 57 6 57 C6 54.36 6 51.72 6 49 C5.34 49 4.68 49 4 49 C3.67 49.99 3.34 50.98 3 52 C2.67 52.99 2.34 53.98 2 55 C2.90871709 58.20429722 2.90871709 58.20429722 4.3125 61.625 C4.76238281 62.79289062 5.21226563 63.96078125 5.67578125 65.1640625 C6.69110277 68.104392 6.69110277 68.104392 9 69 C8.690625 69.763125 8.38125 70.52625 8.0625 71.3125 C7.32106407 73.18789677 6.63771783 75.08684652 6 77 C-2.9897318 51.94956159 -5.67827539 26.19168469 0 0 Z " fill="#0461A9" transform="translate(10,105)"/>
<path d="M0 0 C-3.42388092 3.82669043 -6.00724943 5.72278474 -11 7 C-11 8.98 -11 10.96 -11 13 C-9.68 13.33 -8.36 13.66 -7 14 C-7 14.99 -7 15.98 -7 17 C-6.34 17 -5.68 17 -5 17 C-5 17.99 -5 18.98 -5 20 C-2.03 20.33 0.94 20.66 4 21 C4 21.66 4 22.32 4 23 C4.66 23.33 5.32 23.66 6 24 C6.12375 24.61875 6.2475 25.2375 6.375 25.875 C7.19824895 28.67404641 8.70935857 29.30049184 11 31 C11 31.99 11 32.98 11 34 C7.31821522 32.38594743 4.49292688 30.08020582 1.375 27.5625 C-6.58738857 21.25977436 -15.26187913 16.14284811 -24 11 C-23.00968937 8.43171819 -22.37058125 7.21972083 -19.96875 5.7956543 C-19.1540625 5.47508057 -18.339375 5.15450684 -17.5 4.82421875 C-16.613125 4.47166016 -15.72625 4.11910156 -14.8125 3.75585938 C-13.884375 3.40330078 -12.95625 3.05074219 -12 2.6875 C-11.071875 2.31560547 -10.14375 1.94371094 -9.1875 1.56054688 C-2.27459184 -1.13729592 -2.27459184 -1.13729592 0 0 Z " fill="#82BB41" transform="translate(122,68)"/>
<path d="M0 0 C0 0.66 0 1.32 0 2 C-0.99 2 -1.98 2 -3 2 C-3.21081851 5.89459074 -3.21081851 5.89459074 -2 9 C-4.64 8.34 -7.28 7.68 -10 7 C-10.66 7.99 -11.32 8.98 -12 10 C-13.8828125 10.51953125 -13.8828125 10.51953125 -16.125 10.8125 C-20.82982925 11.68236393 -23.54749086 13.60438286 -27.078125 16.7578125 C-29.5377955 18.34759953 -31.11579944 18.11301726 -34 18 C-38.61384153 19.54635258 -38.61384153 19.54635258 -42.33984375 22.5078125 C-44.67219832 24.60418767 -46.89455471 24.90426091 -49.9375 25.5625 C-53.61486917 26.36906052 -56.67602333 27.25126906 -60 29 C-61.31921763 29.44059807 -62.65382793 29.83781077 -64 30.1875 C-64.99 30.45626953 -64.99 30.45626953 -66 30.73046875 C-68.27219584 31.03668264 -69.80906747 30.60393283 -72 30 C-70.45052083 29.3359375 -68.90104167 28.671875 -67.3515625 28.0078125 C-66.30274902 27.55825195 -65.25393555 27.10869141 -64.17333984 26.64550781 C-61.77022071 25.61574134 -59.36689412 24.58645888 -56.96337891 23.55761719 C-49.88579666 20.52738181 -42.81170973 17.48925966 -35.7427063 14.4390564 C-31.90816257 12.78500077 -28.07239637 11.13379112 -24.23651123 9.48284912 C-22.32616485 8.65979841 -20.41637549 7.83545361 -18.50714111 7.00982666 C-15.80564717 5.84179523 -13.10226411 4.67824432 -10.3984375 3.515625 C-9.57881531 3.15993439 -8.75919312 2.80424377 -7.91473389 2.43777466 C-2.22773655 0 -2.22773655 0 0 0 Z " fill="#94C172" transform="translate(194,36)"/>
<path d="M0 0 C0.33 0.66 0.66 1.32 1 2 C1.99 2 2.98 2 4 2 C4.66 1.34 5.32 0.68 6 0 C5.57754589 3.27401939 4.62003366 5.88001933 3.1875 8.8125 C-2.11936419 20.46830353 -3.72441135 33.37838595 -5 46 C-5.33 46 -5.66 46 -6 46 C-6.33 44.35 -6.66 42.7 -7 41 C-8.485 41.495 -8.485 41.495 -10 42 C-9.67 35.4 -9.34 28.8 -9 22 C-7.68 21.67 -6.36 21.34 -5 21 C-4.34 16.71 -3.68 12.42 -3 8 C-2.34 8 -1.68 8 -1 8 C-1.020625 7.05125 -1.04125 6.1025 -1.0625 5.125 C-1 2 -1 2 0 0 Z " fill="#026FBA" transform="translate(20,82)"/>
<path d="M0 0 C-0.56402136 5.19705396 -2.26109071 9.11474595 -4.625 13.6875 C-4.9861792 14.39229492 -5.3473584 15.09708984 -5.71948242 15.82324219 C-11.69001693 27.31622632 -18.97177985 39.64785323 -30 47 C-30.75 44.75 -30.75 44.75 -31 42 C-29.1875 39.6875 -29.1875 39.6875 -27 38 C-26.34 38 -25.68 38 -25 38 C-24.34 36.02 -23.68 34.04 -23 32 C-21.35 32.33 -19.7 32.66 -18 33 C-17.896875 32.236875 -17.79375 31.47375 -17.6875 30.6875 C-16.92549915 27.70876939 -16.14912979 27.0631646 -14 25 C-12.80972016 22.40084462 -12.80972016 22.40084462 -12 20 C-12.99 20 -13.98 20 -15 20 C-14.01 16.535 -14.01 16.535 -13 13 C-12.01 13 -11.02 13 -10 13 C-9.01 12.67 -8.02 12.34 -7 12 C-7.103125 10.7625 -7.20625 9.525 -7.3125 8.25 C-7.33151722 4.67476315 -7.23993057 4.2525585 -4.625 1.5 C-2 0 -2 0 0 0 Z " fill="#76AC41" transform="translate(255,176)"/>
<path d="M0 0 C2.0625 1.75 2.0625 1.75 4 4 C3.75 6.25 3.75 6.25 3 8 C3.66 8 4.32 8 5 8 C5.06058594 8.75925781 5.12117188 9.51851562 5.18359375 10.30078125 C5.26738281 11.29464844 5.35117187 12.28851563 5.4375 13.3125 C5.51871094 14.29863281 5.59992187 15.28476563 5.68359375 16.30078125 C5.91812559 19.09375599 5.91812559 19.09375599 7 22 C6.67 22.66 6.34 23.32 6 24 C8.64 24 11.28 24 14 24 C13.34 24.99 12.68 25.98 12 27 C11.60612212 29.32387947 11.26513915 31.65793749 11 34 C11.66 34 12.32 34 13 34 C13 35.98 13 37.96 13 40 C13.639375 40.2475 14.27875 40.495 14.9375 40.75 C17 42 17 42 17.75 44.125 C17.87375 45.053125 17.87375 45.053125 18 46 C18.99 46 19.98 46 21 46 C22.23262282 48.90546809 23.18429689 51.69111335 24 54.75 C24.33 55.8225 24.66 56.895 25 58 C25.66 58.33 26.32 58.66 27 59 C26.01 59 25.02 59 24 59 C9.67915562 43.83176838 0.09759402 20.83632282 0 0 Z " fill="#10A4E7" transform="translate(17,152)"/>
<path d="M0 0 C2.12508244 3.18762365 2.5020163 5.26512223 3 9 C3.66 9 4.32 9 5 9 C5.66 12.3 6.32 15.6 7 19 C0.73537794 23.41604506 -5.66666285 27.5836053 -13 30 C-13.99 29.67 -14.98 29.34 -16 29 C-16 28.34 -16 27.68 -16 27 C-14.35 27.33 -12.7 27.66 -11 28 C-11 27.34 -11 26.68 -11 26 C-13.64 26 -16.28 26 -19 26 C-16.29954818 24.19969878 -13.93322119 23.06622934 -10.9375 21.875 C-10.05964844 21.52179688 -9.18179688 21.16859375 -8.27734375 20.8046875 C-6 20 -6 20 -4 20 C-4.33 17.69 -4.66 15.38 -5 13 C-4.67 13.66 -4.34 14.32 -4 15 C-3.01 15.33 -2.02 15.66 -1 16 C-1.33 17.32 -1.66 18.64 -2 20 C-0.68 20 0.64 20 2 20 C1.67 18.68 1.34 17.36 1 16 C1.66 16 2.32 16 3 16 C3 14.02 3 12.04 3 10 C1.02 9.34 -0.96 8.68 -3 8 C-2.74438677 5.6568787 -2.40729228 3.32156597 -2 1 C-1.34 0.67 -0.68 0.34 0 0 Z " fill="#112977" transform="translate(196,225)"/>
<path d="M0 0 C0.495 0.99 0.495 0.99 1 2 C-0.04277929 4.24106076 -1.13201874 6.30985665 -2.375 8.4375 C-2.73859619 9.06422607 -3.10219238 9.69095215 -3.47680664 10.33666992 C-8.85899847 19.37282685 -15.6834641 26.95825633 -23.25 34.22265625 C-25.07555954 35.89373212 -25.07555954 35.89373212 -26 38 C-28.93704456 40.0095568 -30.39222485 41 -34 41 C-31.47667524 36.06549824 -27.83399641 32.76555375 -23.875 29 C-16.02866064 21.35441382 -9.89575306 13.39018776 -4.625 3.75 C-3 1 -3 1 0 0 Z " fill="#579457" transform="translate(251,192)"/>
<path d="M0 0 C0.66 0.33 1.32 0.66 2 1 C4.53032835 12.96439205 4.46871125 24.90935914 3 37 C2.67 37 2.34 37 2 37 C1.67 27.43 1.34 17.86 1 8 C-1.31 8.33 -3.62 8.66 -6 9 C-6.33 11.31 -6.66 13.62 -7 16 C-8.65 16.33 -10.3 16.66 -12 17 C-12 16.34 -12 15.68 -12 15 C-13.98 15.99 -13.98 15.99 -16 17 C-16 14 -16 14 -13.86328125 11.61328125 C-11.04044336 9.03691215 -8.16110506 6.58787999 -5.1875 4.1875 C-4.21167969 3.39730469 -3.23585938 2.60710937 -2.23046875 1.79296875 C-1.49441406 1.20128906 -0.75835937 0.60960938 0 0 Z " fill="#609E63" transform="translate(262,111)"/>
<path d="M0 0 C-4.85320964 4.01374764 -10.71705162 6.06575293 -16.47216797 8.46313477 C-18.49996655 9.31248599 -20.51723132 10.18413721 -22.53515625 11.05664062 C-23.82493423 11.59775449 -25.11528083 12.13751545 -26.40625 12.67578125 C-27.57478516 13.16989502 -28.74332031 13.66400879 -29.94726562 14.1730957 C-33 15 -33 15 -35.41210938 14.14526367 C-35.93611328 13.76732666 -36.46011719 13.38938965 -37 13 C-37 11.68 -37 10.36 -37 9 C-36.0925 9.04125 -35.185 9.0825 -34.25 9.125 C-31.04674814 9.00179801 -29.62842211 8.72206966 -27 7 C-26.54625 6.46375 -26.0925 5.9275 -25.625 5.375 C-23.19604762 3.3197326 -21.06626911 3.79558206 -18 4 C-18 3.34 -18 2.68 -18 2 C-15.69 2.33 -13.38 2.66 -11 3 C-11 2.34 -11 1.68 -11 1 C-7.26562152 0.12132271 -3.83225427 -0.08912219 0 0 Z " fill="#4EBAE0" transform="translate(122,48)"/>
<path d="M0 0 C-0.33 0.99 -0.66 1.98 -1 3 C-3.05078125 3.22786458 -5.1015625 3.45572917 -7.15234375 3.68359375 C-9.01140229 3.81886614 -9.01140229 3.81886614 -10 5 C-13.36209065 5.28469316 -16.72414001 5.44895063 -20.09375 5.62109375 C-21.0528125 5.74613281 -22.011875 5.87117188 -23 6 C-23.33 6.66 -23.66 7.32 -24 8 C-26.97941998 8.05455703 -29.95781531 8.09393851 -32.9375 8.125 C-34.18370117 8.15013672 -34.18370117 8.15013672 -35.45507812 8.17578125 C-41.27505267 8.22107288 -46.3596123 7.4456695 -52 6 C-52 5.34 -52 4.68 -52 4 C-46.09297305 2.95184804 -40.4238195 2.95986559 -34.4375 3.0625 C-24.82634315 3.15117413 -15.79984481 2.46941505 -6.37890625 0.43359375 C-4 0 -4 0 0 0 Z " fill="#072E7D" transform="translate(167,254)"/>
<path d="M0 0 C2.475 0.495 2.475 0.495 5 1 C5 2.32 5 3.64 5 5 C0.23258636 6.97906288 -4.53632064 8.95446648 -9.30664062 10.92651367 C-10.92880007 11.59771294 -12.55054895 12.26990535 -14.171875 12.94311523 C-16.50413163 13.91131613 -18.83784767 14.87592065 -21.171875 15.83984375 C-21.89493835 16.14091537 -22.61800171 16.441987 -23.36297607 16.75218201 C-26.55042114 18.06488834 -29.64384291 19.22057296 -33 20 C-33 19.01 -33 18.02 -33 17 C-31.35 17 -29.7 17 -28 17 C-27.67 14.36 -27.34 11.72 -27 9 C-26.27296875 9.04640625 -25.5459375 9.0928125 -24.796875 9.140625 C-17.73253523 9.39421668 -12.27338485 8.454061 -5.69140625 5.875 C-2.95430902 4.98514546 -0.85583867 4.83414367 2 5 C2 3.68 2 2.36 2 1 C1.34 0.67 0.68 0.34 0 0 Z " fill="#36B4E4" transform="translate(187,15)"/>
<path d="M0 0 C0.99 0 1.98 0 3 0 C3.33 0.66 3.66 1.32 4 2 C4.99 2 5.98 2 7 2 C7.103125 2.5775 7.20625 3.155 7.3125 3.75 C8.09792798 6.32049158 9.30504197 7.93657284 11 10 C11.66 9.67 12.32 9.34 13 9 C13.7734375 9.6496875 13.7734375 9.6496875 14.5625 10.3125 C17.582386 12.40319031 20.5958835 13.62526065 24 15 C23.01 15.33 22.02 15.66 21 16 C20.34 15.67 19.68 15.34 19 15 C18.67 15.66 18.34 16.32 18 17 C18 16.34 18 15.68 18 15 C17.34 15 16.68 15 16 15 C16 15.99 16 16.98 16 18 C16.5775 18.04125 17.155 18.0825 17.75 18.125 C21.13312465 19.44065958 22.19222685 21.96552364 24 25 C16.23470624 21.56290276 4.63813952 13.04870727 1.1328125 5.01171875 C0.5625 3.0625 0.5625 3.0625 0 0 Z " fill="#4C5E91" transform="translate(38,214)"/>
<path d="M0 0 C7.0486141 0.11368732 10.59946601 1.71110603 16.16015625 5.9453125 C19.51885344 8.37540153 23.01407528 10.40985844 26.625 12.4375 C27.25365967 12.79142822 27.88231934 13.14535645 28.5300293 13.51000977 C30.01777862 14.34401664 31.50855791 15.17261498 33 16 C29.02411267 17.32529578 26.95405244 16.22711972 23 15 C21.33753959 14.64628502 19.67225729 14.30404678 18 14 C18 13.01 18 12.02 18 11 C17.00419922 10.99613281 17.00419922 10.99613281 15.98828125 10.9921875 C8.82993257 10.67868318 8.82993257 10.67868318 6.328125 8.6328125 C5.16324262 7.12997041 4.07722224 5.56686871 3 4 C2.01 3.67 1.02 3.34 0 3 C0 2.01 0 1.02 0 0 Z " fill="#122A74" transform="translate(54,229)"/>
<path d="M0 0 C3.3 0 6.6 0 10 0 C10.33 0.66 10.66 1.32 11 2 C10.67 2.66 10.34 3.32 10 4 C11.11375 3.938125 12.2275 3.87625 13.375 3.8125 C15.169375 3.9053125 15.169375 3.9053125 17 4 C17.99 5.485 17.99 5.485 19 7 C18.67 7.66 18.34 8.32 18 9 C19.94603274 9.59070014 19.94603274 9.59070014 22 10 C22.33 9.67 22.66 9.34 23 9 C25.75943884 8.70953275 27.37756358 8.56198919 29.6875 10.1875 C31.24824919 12.34282031 32.12052567 14.49688074 33 17 C21.3722303 13.67778009 9.95661641 7.84517378 0 1 C0 0.67 0 0.34 0 0 Z " fill="#3A4581" transform="translate(62,239)"/>
<path d="M0 0 C1.32 0.66 2.64 1.32 4 2 C-0.04848098 3.76560022 -4.10506768 5.51051741 -8.17041016 7.23681641 C-9.55205152 7.8269093 -10.9313229 8.42258374 -12.30810547 9.02392578 C-14.28796951 9.88752906 -16.27549814 10.73067963 -18.265625 11.5703125 C-20.05661621 12.34012451 -20.05661621 12.34012451 -21.88378906 13.12548828 C-25 14 -25 14 -27.42089844 13.15185547 C-27.94200195 12.77174316 -28.46310547 12.39163086 -29 12 C-28.67 10.35 -28.34 8.7 -28 7 C-23.02936879 6.08702692 -18.97063121 6.08702692 -14 7 C-13.79632813 6.36578125 -13.59265625 5.7315625 -13.3828125 5.078125 C-12 3 -12 3 -9.1796875 2.171875 C-8.08914062 2.03265625 -6.99859375 1.8934375 -5.875 1.75 C-4.23144531 1.52570312 -4.23144531 1.52570312 -2.5546875 1.296875 C-1.71164063 1.19890625 -0.86859375 1.1009375 0 1 C0 0.67 0 0.34 0 0 Z " fill="#35C4EA" transform="translate(149,34)"/>
<path d="M0 0 C6.06732052 1.03767051 11.4373852 2.33961901 17 5 C17 5.66 17 6.32 17 7 C17.66 7 18.32 7 19 7 C19 8.32 19 9.64 19 11 C15.04 11.99 11.08 12.98 7 14 C6.67 11.03 6.34 8.06 6 5 C5.21625 4.87625 4.4325 4.7525 3.625 4.625 C1 4 1 4 -1 2 C-0.67 1.34 -0.34 0.68 0 0 Z " fill="#1194D5" transform="translate(170,9)"/>
<path d="M0 0 C0.66 0 1.32 0 2 0 C2 2.64 2 5.28 2 8 C2.99 8.33 3.98 8.66 5 9 C6.01953125 11.73046875 6.01953125 11.73046875 6.8125 15.1875 C7.08707031 16.31542969 7.36164062 17.44335938 7.64453125 18.60546875 C8.03891585 22.37162495 7.4192216 24.52913174 6 28 C5.65023242 29.32911682 5.30903983 30.66082739 5 32 C1.875 25.375 1.875 25.375 3 22 C3 18.8073188 0.33954632 14.61211857 -0.95507812 11.63476562 C-3.04842721 6.59595123 -3.04842721 6.59595123 -2.80859375 3.64453125 C-2 2 -2 2 0 0 Z " fill="#08519C" transform="translate(14,154)"/>
<path d="M0 0 C2.87537836 1.43768918 2.96501667 3.1917084 4 6.1875 C4.34546875 7.1775 4.6909375 8.1675 5.046875 9.1875 C5.36140625 10.115625 5.6759375 11.04375 6 12 C6.61875 13.8253125 6.61875 13.8253125 7.25 15.6875 C7.4975 16.450625 7.745 17.21375 8 18 C7.01 18.33 6.02 18.66 5 19 C5 20.65 5 22.3 5 24 C2.0332097 21.42639878 0.50855222 18.48295779 -1.25 15 C-1.79140625 13.948125 -2.3328125 12.89625 -2.890625 11.8125 C-4 9 -4 9 -3 6 C-2.67 6 -2.34 6 -2 6 C-1.34 4.02 -0.68 2.04 0 0 Z " fill="#1F5595" transform="translate(21,176)"/>
<path d="M0 0 C5.36095277 1.58921525 10.70843973 3.18972938 16 5 C15.01 5.33 14.02 5.66 13 6 C13 6.66 13 7.32 13 8 C15.97 8.33 18.94 8.66 22 9 C22 9.33 22 9.66 22 10 C15.42051021 10.30745279 9.83820403 9.20431358 3.5 7.5 C2.5821875 7.26152344 1.664375 7.02304687 0.71875 6.77734375 C-1.52324531 6.19349081 -3.76253068 5.60092033 -6 5 C-2.98968256 4.06576355 -2.13349732 3.95550089 1 5 C0.67 3.35 0.34 1.7 0 0 Z " fill="#2B3C78" transform="translate(102,252)"/>
<path d="M0 0 C3.84071034 1.32363464 6.11289312 3.87279305 8.828125 6.765625 C9.6025293 7.56709961 9.6025293 7.56709961 10.39257812 8.38476562 C11.39607897 9.42406013 12.3957571 10.4670627 13.39111328 11.51416016 C15.15227199 13.3579025 16.95410544 15.15898213 18.765625 16.953125 C16.54887631 16.47810742 14.72705401 15.9332551 12.703125 14.890625 C10.67427819 13.73534454 10.67427819 13.73534454 7.765625 13.953125 C6.69787276 11.98846087 5.70009035 9.98457141 4.765625 7.953125 C5.095625 7.293125 5.425625 6.633125 5.765625 5.953125 C4.115625 6.283125 2.465625 6.613125 0.765625 6.953125 C1.095625 5.963125 1.425625 4.973125 1.765625 3.953125 C0.775625 3.953125 -0.214375 3.953125 -1.234375 3.953125 C-0.904375 5.273125 -0.574375 6.593125 -0.234375 7.953125 C-1.884375 6.303125 -3.534375 4.653125 -5.234375 2.953125 C-3.54307339 0.72772814 -2.86355789 -0.06007464 0 0 Z " fill="#2B5491" transform="translate(39.234375,210.046875)"/>
<path d="M0 0 C0.33 0.66 0.66 1.32 1 2 C1.99 2 2.98 2 4 2 C4.66 1.34 5.32 0.68 6 0 C5.5585081 3.42156219 4.50471539 6.21361339 3.0625 9.3125 C1.13396908 13.49215246 -0.01988739 17.50781719 -1 22 C-2.51953125 20.85546875 -2.51953125 20.85546875 -4 19 C-4.07421875 16.30078125 -4.07421875 16.30078125 -3.6875 13.3125 C-3.56761719 12.31863281 -3.44773437 11.32476562 -3.32421875 10.30078125 C-3.21722656 9.54152344 -3.11023438 8.78226563 -3 8 C-2.34 8 -1.68 8 -1 8 C-1.020625 7.05125 -1.04125 6.1025 -1.0625 5.125 C-1 2 -1 2 0 0 Z " fill="#0377C3" transform="translate(20,82)"/>
<path d="M0 0 C0.33 0 0.66 0 1 0 C1.25 5.625 1.25 5.625 -1 9 C-1.39013716 10.9896995 -1.73202649 12.99019869 -2 15 C-2.66 15 -3.32 15 -4 15 C-4.03738281 15.75925781 -4.07476563 16.51851562 -4.11328125 17.30078125 C-4.17902344 18.29464844 -4.24476562 19.28851563 -4.3125 20.3125 C-4.37050781 21.29863281 -4.42851562 22.28476563 -4.48828125 23.30078125 C-5.04862715 26.25649894 -5.58976204 27.25629698 -8 29 C-8.66 29 -9.32 29 -10 29 C-8.61222435 18.83095428 -4.74081374 9.07136475 0 0 Z " fill="#3688BD" transform="translate(21,75)"/>
<path d="M0 0 C3.0887499 4.63312484 3.05248203 8.42430623 2.96875 13.9296875 C3.01533105 17.01568175 3.49303109 19.95818654 4 23 C3.34 23.33 2.68 23.66 2 24 C2 23.34 2 22.68 2 22 C1.34 22 0.68 22 0 22 C0 23.65 0 25.3 0 27 C-0.33 27 -0.66 27 -1 27 C-1.03758423 26.03175293 -1.03758423 26.03175293 -1.07592773 25.04394531 C-1.19214433 22.11244106 -1.31475442 19.18123783 -1.4375 16.25 C-1.47681641 15.23421875 -1.51613281 14.2184375 -1.55664062 13.171875 C-1.59853516 12.1921875 -1.64042969 11.2125 -1.68359375 10.203125 C-1.72025146 9.30239258 -1.75690918 8.40166016 -1.79467773 7.47363281 C-1.98306407 5.20403661 -2.37366501 3.18437113 -3 1 C-2.01 0.67 -1.02 0.34 0 0 Z " fill="#2E7F39" transform="translate(207,213)"/>
<path d="M0 0 C5.78201806 5.08116739 11.84005172 12.37812165 12.9375 20.1875 C12.958125 21.115625 12.97875 22.04375 13 23 C12.34 23 11.68 23 11 23 C10.67 22.01 10.34 21.02 10 20 C9.195625 19.814375 8.39125 19.62875 7.5625 19.4375 C5 18 5 18 4.33203125 15.79296875 C4.03137606 14.03786198 3.77100643 12.27529643 3.5546875 10.5078125 C3.16385823 7.92097406 3.16385823 7.92097406 1.4453125 5.9296875 C0 4 0 4 0 0 Z " fill="#227EBA" transform="translate(165,163)"/>
<path d="M0 0 C-3.07536702 3.59285666 -5.40131418 4.67077269 -10 5.625 C-13.66920532 6.40470613 -16.68917086 7.25491714 -20 9 C-21.31921763 9.44059807 -22.65382793 9.83781077 -24 10.1875 C-24.99 10.45626953 -24.99 10.45626953 -26 10.73046875 C-28.27219584 11.03668264 -29.80906747 10.60393283 -32 10 C-28.10735427 8.34655409 -24.21036903 6.70359018 -20.3125 5.0625 C-19.20970703 4.59392578 -18.10691406 4.12535156 -16.97070312 3.64257812 C-15.90400391 3.19462891 -14.83730469 2.74667969 -13.73828125 2.28515625 C-12.75899658 1.87144775 -11.77971191 1.45773926 -10.77075195 1.03149414 C-6.72291915 -0.47543102 -4.16094343 -1.38698114 0 0 Z " fill="#84B853" transform="translate(154,56)"/>
<path d="M0 0 C0 0.33 0 0.66 0 1 C-12.01603879 3.29658079 -23.81454544 3.21517374 -36 3 C-33.74358301 0.43082079 -33.20789647 0.03155787 -29.62890625 -0.51171875 C-28.27419557 -0.58579794 -26.91852183 -0.64352775 -25.5625 -0.6875 C-24.85182373 -0.72020996 -24.14114746 -0.75291992 -23.40893555 -0.78662109 C-6.60589781 -1.49971734 -6.60589781 -1.49971734 0 0 Z " fill="#32356E" transform="translate(161,260)"/>
<path d="M0 0 C0.66 0.33 1.32 0.66 2 1 C0.68 1.33 -0.64 1.66 -2 2 C-2 2.66 -2 3.32 -2 4 C-3.96147874 5.38938077 -5.96166576 6.7260411 -8 8 C-7.01 8.66 -6.02 9.32 -5 10 C-5.33 10.99 -5.66 11.98 -6 13 C-6.99 13 -7.98 13 -9 13 C-9 12.01 -9 11.02 -9 10 C-9.59167969 10.13277344 -10.18335937 10.26554687 -10.79296875 10.40234375 C-14.85446525 11.31005178 -18.91374171 12.2091113 -23 13 C-20.88099171 10.70385844 -18.85646836 9.22117027 -16.09375 7.7734375 C-15.34996094 7.3815625 -14.60617188 6.9896875 -13.83984375 6.5859375 C-13.06769531 6.18632812 -12.29554687 5.78671875 -11.5 5.375 C-10.34177734 4.76398437 -10.34177734 4.76398437 -9.16015625 4.140625 C-6.1160613 2.5473552 -3.26692607 1.08897536 0 0 Z " fill="#0D8DD9" transform="translate(89,13)"/>
<path d="M0 0 C0.33 0.99 0.66 1.98 1 3 C0.67 3.66 0.34 4.32 0 5 C-0.66 5 -1.32 5 -2 5 C-2.1546875 5.8353125 -2.1546875 5.8353125 -2.3125 6.6875 C-3 9 -3 9 -4.5 11.4375 C-6.15327404 13.89150195 -6.15327404 13.89150195 -6.375 16.625 C-7 19 -7 19 -9.5 20.6875 C-10.325 21.120625 -11.15 21.55375 -12 22 C-12.33 22.66 -12.66 23.32 -13 24 C-13.66 24 -14.32 24 -15 24 C-12.34851123 14.86256176 -6.26663574 7.04996521 0 0 Z " fill="#398EC3" transform="translate(37,51)"/>
<path d="M0 0 C1.17175781 0.01353516 1.17175781 0.01353516 2.3671875 0.02734375 C2.94726562 0.03894531 3.52734375 0.05054688 4.125 0.0625 C-0.07767586 2.49296315 -4.35364492 2.84322711 -9.09765625 3.5 C-12.07099906 3.91980575 -12.07099906 3.91980575 -14.875 6.0625 C-20.86116843 7.78498541 -26.67645667 8.29207568 -32.875 8.0625 C-30.19399438 6.27516292 -28.65669787 5.59252276 -25.63671875 4.80859375 C-24.81623047 4.59396484 -23.99574219 4.37933594 -23.15039062 4.15820312 C-22.29638672 3.94099609 -21.44238281 3.72378906 -20.5625 3.5 C-19.72009766 3.27892578 -18.87769531 3.05785156 -18.00976562 2.83007812 C-12.01323757 1.27820104 -6.23157888 -0.09441786 0 0 Z " fill="#61B9DB" transform="translate(123.875,4.9375)"/>
<path d="M0 0 C0.33 0 0.66 0 1 0 C1 4.95 1 9.9 1 15 C0.67 15 0.34 15 0 15 C-0.33 25.56 -0.66 36.12 -1 47 C-1.33 47 -1.66 47 -2 47 C-3.59593373 31.18315681 -3.3791844 15.5868686 0 0 Z " fill="#7CACD0" transform="translate(10,105)"/>
<path d="M0 0 C1.05316406 0.0721875 2.10632813 0.144375 3.19140625 0.21875 C11.82417615 0.78258848 20.37242581 1.0856972 29.0234375 0.9375 C32 1 32 1 35 2 C35 2.66 35 3.32 35 4 C11.41761516 4.61916858 11.41761516 4.61916858 0 1 C0 0.67 0 0.34 0 0 Z " fill="#2998DC" transform="translate(109,254)"/>
<path d="M0 0 C0.33 0 0.66 0 1 0 C1.04970487 4.71393321 1.085863 9.4277114 1.10986328 14.1418457 C1.11987623 15.74310974 1.1334906 17.34435571 1.15087891 18.94555664 C1.17533565 21.25671876 1.18653029 23.56763762 1.1953125 25.87890625 C1.20563507 26.58648575 1.21595764 27.29406525 1.22659302 28.02308655 C1.22764468 32.75834265 0.46788729 36.55316497 -1 41 C-1.33 41 -1.66 41 -2 41 C-1.98839844 39.72382813 -1.97679687 38.44765625 -1.96484375 37.1328125 C-1.95546583 35.46354313 -1.94636563 33.79427217 -1.9375 32.125 C-1.92912109 31.28324219 -1.92074219 30.44148438 -1.91210938 29.57421875 C-1.90888672 28.76855469 -1.90566406 27.96289062 -1.90234375 27.1328125 C-1.89710693 26.38918457 -1.89187012 25.64555664 -1.88647461 24.87939453 C-1.88213364 22.90867432 -1.88213364 22.90867432 -3 21 C-2.70351563 20.43796875 -2.40703125 19.8759375 -2.1015625 19.296875 C-0.64564436 16.2611308 -0.57596671 13.59944522 -0.375 10.25 C-0.30023438 9.07953125 -0.22546875 7.9090625 -0.1484375 6.703125 C-0.09945313 5.81109375 -0.05046875 4.9190625 0 4 C-0.66 3.67 -1.32 3.34 -2 3 C-1.34 2.01 -0.68 1.02 0 0 Z " fill="#377C3D" transform="translate(263,118)"/>
<path d="M0 0 C0.33 0.66 0.66 1.32 1 2 C1.66 2.33 2.32 2.66 3 3 C3.35796423 4.66155063 3.68579333 6.32962188 4 8 C4.7901313 10.07943339 5.62587814 12.14195321 6.5 14.1875 C6.9434375 15.23292969 7.386875 16.27835938 7.84375 17.35546875 C8.52753778 18.91940229 9.23665816 20.47331631 10 22 C9.34 22.99 8.68 23.98 8 25 C7.67 25.99 7.34 26.98 7 28 C0 7.72137405 0 7.72137405 0 0 Z " fill="#6489B2" transform="translate(9,154)"/>
<path d="M0 0 C5.59697854 1.47428299 9.71540556 4.27213539 14.375 7.5625 C15.11105469 8.06974609 15.84710938 8.57699219 16.60546875 9.09960938 C20.54926569 11.84709685 20.54926569 11.84709685 22 13 C22 13.33 22 13.66 22 14 C19.36 14 16.72 14 14 14 C13.67 13.01 13.34 12.02 13 11 C12.34 11 11.68 11 11 11 C11 10.01 11 9.02 11 8 C10.34 8 9.68 8 9 8 C9 7.34 9 6.68 9 6 C7.35 5.67 5.7 5.34 4 5 C4 4.34 4 3.68 4 3 C3.01 3 2.02 3 1 3 C0.67 2.01 0.34 1.02 0 0 Z " fill="#3A9CD2" transform="translate(98,105)"/>
<path d="M0 0 C5.54110713 3.40991208 10.20968493 7.61420043 15 12 C14.34 12.66 13.68 13.32 13 14 C11.68 13.34 10.36 12.68 9 12 C8.34 12.66 7.68 13.32 7 14 C7 13.34 7 12.68 7 12 C6.01 11.67 5.02 11.34 4 11 C3.67 8.36 3.34 5.72 3 3 C1.68 3 0.36 3 -1 3 C-0.67 2.01 -0.34 1.02 0 0 Z " fill="#6EAD50" transform="translate(156,90)"/>
<path d="M0 0 C-6.16567994 5.02388736 -11.28744954 5.26956487 -19 5 C-19 5.66 -19 6.32 -19 7 C-21.31 7 -23.62 7 -26 7 C-25.34 6.01 -24.68 5.02 -24 4 C-20.875 3.8125 -20.875 3.8125 -18 4 C-18 3.34 -18 2.68 -18 2 C-15.69 2.33 -13.38 2.66 -11 3 C-11 2.34 -11 1.68 -11 1 C-7.26562152 0.12132271 -3.83225427 -0.08912219 0 0 Z " fill="#15AFE1" transform="translate(122,48)"/>
<path d="M0 0 C2.64 0.33 5.28 0.66 8 1 C8 1.66 8 2.32 8 3 C8.66 3.33 9.32 3.66 10 4 C10.12375 4.61875 10.2475 5.2375 10.375 5.875 C11.19824895 8.67404641 12.70935857 9.30049184 15 11 C15 11.99 15 12.98 15 14 C11.84543198 12.53795135 9.14975548 10.78016676 6.375 8.6875 C5.59898438 8.11386719 4.82296875 7.54023437 4.0234375 6.94921875 C1.76256059 4.77126976 0.9486795 2.96334834 0 0 Z " fill="#88BB5B" transform="translate(118,88)"/>
<path d="M0 0 C2 2 2 2 2 6 C-20.10679612 15 -20.10679612 15 -25 15 C-25 14.34 -25 13.68 -25 13 C-22.06497405 11.99263372 -19.12660539 10.99539496 -16.1875 10 C-15.35412109 9.71382812 -14.52074219 9.42765625 -13.66210938 9.1328125 C-12.85966797 8.86210937 -12.05722656 8.59140625 -11.23046875 8.3125 C-10.49207764 8.06113281 -9.75368652 7.80976563 -8.99291992 7.55078125 C-7 7 -7 7 -4 7 C-4 6.34 -4 5.68 -4 5 C-2.68 5 -1.36 5 0 5 C0 4.34 0 3.68 0 3 C-0.66 3 -1.32 3 -2 3 C-2 2.34 -2 1.68 -2 1 C-1.34 0.67 -0.68 0.34 0 0 Z " fill="#246DB8" transform="translate(190,239)"/>
<path d="M0 0 C0.63164063 0.4125 1.26328125 0.825 1.9140625 1.25 C9.45722218 6.11935956 17.17668708 10.60295551 25 15 C21.02411267 16.32529578 18.95405244 15.22711972 15 14 C13.33753959 13.64628502 11.67225729 13.30404678 10 13 C9.95875 12.4225 9.9175 11.845 9.875 11.25 C8.57146669 7.89805721 5.95907372 6.88877046 3 5 C3 4.34 3 3.68 3 3 C2.01 2.67 1.02 2.34 0 2 C0 1.34 0 0.68 0 0 Z " fill="#06387D" transform="translate(62,230)"/>
<path d="M0 0 C1.32 0 2.64 0 4 0 C4 0.99 4 1.98 4 3 C4.886875 3.226875 5.77375 3.45375 6.6875 3.6875 C10.49785801 5.19726449 12.26950506 6.98208453 15 10 C15.7425 10.70125 16.485 11.4025 17.25 12.125 C19 14 19 14 20 17 C17 17 17 17 14.2578125 14.55078125 C13.20585198 13.4788468 12.16186502 12.39904283 11.125 11.3125 C10.34962891 10.51682617 10.34962891 10.51682617 9.55859375 9.70507812 C8.53265143 8.65200132 7.50948794 7.59620943 6.48925781 6.53759766 C4.35254376 4.33152797 2.17765475 2.16560131 0 0 Z " fill="#8DBB6F" transform="translate(133,102)"/>
<path d="M0 0 C0.33 0.66 0.66 1.32 1 2 C1.66 2.33 2.32 2.66 3 3 C-1.95 6.3 -6.9 9.6 -12 13 C-12.66 11.68 -13.32 10.36 -14 9 C-13.34 8.34 -12.68 7.68 -12 7 C-10.33333333 7 -8.66666667 7 -7 7 C-7 5.68 -7 4.36 -7 3 C-4.69 2.01 -2.38 1.02 0 0 Z " fill="#66A55B" transform="translate(223,107)"/>
<path d="M0 0 C9.57 0 19.14 0 29 0 C28.67 0.99 28.34 1.98 28 3 C25.02058002 3.05455703 22.04218469 3.09393851 19.0625 3.125 C17.81629883 3.15013672 17.81629883 3.15013672 16.54492188 3.17578125 C10.72494733 3.22107288 5.6403877 2.4456695 0 1 C0 0.67 0 0.34 0 0 Z " fill="#131E62" transform="translate(115,259)"/>
<path d="M0 0 C1.9375 0.375 1.9375 0.375 4 1 C5.26026798 3.52053595 4.91874445 4.8542098 4.5625 7.625 C4.46066406 8.44226563 4.35882813 9.25953125 4.25390625 10.1015625 C4.17011719 10.72804687 4.08632812 11.35453125 4 12 C3.01 11.34 2.02 10.68 1 10 C0.34 10.66 -0.32 11.32 -1 12 C-1.2226746 10.56465159 -1.42761906 9.12654475 -1.625 7.6875 C-1.74101562 6.88699219 -1.85703125 6.08648437 -1.9765625 5.26171875 C-2 3 -2 3 0 0 Z " fill="#2078B8" transform="translate(179,188)"/>
<path d="M0 0 C-0.375 1.9375 -0.375 1.9375 -1 4 C-1.99 4.495 -1.99 4.495 -3 5 C-3 5.99 -3 6.98 -3 8 C-1.35 8 0.3 8 2 8 C0.265625 9.1484375 0.265625 9.1484375 -2 10 C-4.140625 9.1015625 -4.140625 9.1015625 -6.25 7.625 C-7.30960937 6.90183594 -7.30960937 6.90183594 -8.390625 6.1640625 C-8.92171875 5.77992187 -9.4528125 5.39578125 -10 5 C-8.3046875 1.1640625 -8.3046875 1.1640625 -5.5625 -0.3125 C-3 -1 -3 -1 0 0 Z " fill="#ACCE84" transform="translate(108,74)"/>
<path d="M0 0 C1.32 0.66 2.64 1.32 4 2 C1.2100561 3.17094005 -1.58178597 4.33690927 -4.375 5.5 C-5.1690625 5.83386719 -5.963125 6.16773438 -6.78125 6.51171875 C-7.92207031 6.98544922 -7.92207031 6.98544922 -9.0859375 7.46875 C-9.7876709 7.76201172 -10.4894043 8.05527344 -11.21240234 8.35742188 C-13 9 -13 9 -15 9 C-14.12259699 5.96897144 -13.65071148 4.38277146 -10.875 2.75 C-7.24713471 1.80360036 -3.73079259 1.37940264 0 1 C0 0.67 0 0.34 0 0 Z " fill="#45C7EC" transform="translate(149,34)"/>
<path d="M0 0 C2.5859375 0.93359375 2.5859375 0.93359375 4.421875 3.5859375 C4.92976562 4.67003906 5.43765625 5.75414063 5.9609375 6.87109375 C6.48429688 7.95261719 7.00765625 9.03414062 7.546875 10.1484375 C7.88976562 11.06753906 8.23265625 11.98664063 8.5859375 12.93359375 C8.2559375 13.59359375 7.9259375 14.25359375 7.5859375 14.93359375 C6.9259375 14.93359375 6.2659375 14.93359375 5.5859375 14.93359375 C5.18761719 14.07894531 4.78929687 13.22429687 4.37890625 12.34375 C3.84910156 11.23902344 3.31929687 10.13429688 2.7734375 8.99609375 C2.25136719 7.89394531 1.72929687 6.79179688 1.19140625 5.65625 C-0.18200971 2.64618598 -0.18200971 2.64618598 -3.4140625 1.93359375 C-3.4140625 2.59359375 -3.4140625 3.25359375 -3.4140625 3.93359375 C-5.3940625 4.26359375 -7.3740625 4.59359375 -9.4140625 4.93359375 C-3.25661956 -0.08958339 -3.25661956 -0.08958339 0 0 Z " fill="#75A86D" transform="translate(246.4140625,68.06640625)"/>
<path d="M0 0 C1.9609375 0.62109375 1.9609375 0.62109375 4 2 C4.5390625 4.78515625 4.5390625 4.78515625 4.625 8.0625 C4.68627971 10.04466308 4.7966335 12.027345 5 14 C5.66 14.33 6.32 14.66 7 15 C6.67 15.33 6.34 15.66 6 16 C6.33 16.99 6.66 17.98 7 19 C6.0625 21.1875 6.0625 21.1875 5 23 C4.15862957 20.1062867 3.3266964 17.21040603 2.5 14.3125 C2.26152344 13.49587891 2.02304688 12.67925781 1.77734375 11.83789062 C0.63535132 7.80828875 -0.34500623 4.23495153 0 0 Z " fill="#639C68" transform="translate(196,186)"/>
<path d="M0 0 C-3.53361325 2.99801938 -7.04589616 5.23912566 -11.1875 7.3125 C-12.23292969 7.84488281 -13.27835938 8.37726563 -14.35546875 8.92578125 C-15.66451172 9.45751953 -15.66451172 9.45751953 -17 10 C-17.66 9.67 -18.32 9.34 -19 9 C-18.67 8.01 -18.34 7.02 -18 6 C-15.0625 4.75 -15.0625 4.75 -12 4 C-11.34 4.33 -10.68 4.66 -10 5 C-10 4.34 -10 3.68 -10 3 C-9.34 3 -8.68 3 -8 3 C-7.67 2.01 -7.34 1.02 -7 0 C-3.86650268 -1.04449911 -3.01031744 -0.93423645 0 0 Z " fill="#90BB7A" transform="translate(208,60)"/>
<path d="M0 0 C2 3 2 3 3 6 C3.37125 7.093125 3.7425 8.18625 4.125 9.3125 C5.01227895 13.051747 4.90007992 15.30967234 4 19 C3.34 19 2.68 19 2 19 C1.67 18.01 1.34 17.02 1 16 C1.66 16 2.32 16 3 16 C3 14.02 3 12.04 3 10 C1.02 9.34 -0.96 8.68 -3 8 C-2.74438677 5.6568787 -2.40729228 3.32156597 -2 1 C-1.34 0.67 -0.68 0.34 0 0 Z " fill="#0E357D" transform="translate(196,225)"/>
<path d="M0 0 C1.98 0 3.96 0 6 0 C6 0.99 6 1.98 6 3 C4.35 3.33 2.7 3.66 1 4 C0.7525 5.11375 0.505 6.2275 0.25 7.375 C-1 11 -1 11 -3 12.3125 C-3.99 12.6528125 -3.99 12.6528125 -5 13 C-5.66 13.66 -6.32 14.32 -7 15 C-7.33 14.34 -7.66 13.68 -8 13 C-7.360625 12.236875 -6.72125 11.47375 -6.0625 10.6875 C-3.85767219 8.11753287 -3.85767219 8.11753287 -3 5 C-2.34 5 -1.68 5 -1 5 C-0.67 3.35 -0.34 1.7 0 0 Z " fill="#077EC6" transform="translate(38,51)"/>
<path d="M0 0 C4 0 4 0 7 2 C8.03490087 5.10470262 8.82623564 8.17461929 9.5 11.375 C9.665 11.91125 9.83 12.4475 10 13 C10.66 13.33 11.32 13.66 12 14 C11.01 14 10.02 14 9 14 C7.29476885 12.07388399 5.80449683 10.20475316 4.3125 8.125 C3.89677734 7.56941406 3.48105469 7.01382813 3.05273438 6.44140625 C0 2.28086515 0 2.28086515 0 0 Z " fill="#26AAE9" transform="translate(32,197)"/>
<path d="M0 0 C2.31 1.98 4.62 3.96 7 6 C5 10 5 10 1.875 11.25 C0.92625 11.4975 -0.0225 11.745 -1 12 C-1.33 11.01 -1.66 10.02 -2 9 C-1.01 9 -0.02 9 1 9 C0.67 6.03 0.34 3.06 0 0 Z " fill="#72AB59" transform="translate(225,40)"/>
<path d="M0 0 C0.66 0.33 1.32 0.66 2 1 C2 1.99 2 2.98 2 4 C-1.08809695 5.76462683 -2.23312136 6 -6 6 C-6 6.99 -6 7.98 -6 9 C-8.27837542 11.27837542 -9.50812237 11.96646289 -12.75 12.1875 C-13.4925 12.125625 -14.235 12.06375 -15 12 C-11.99764638 8.82608332 -8.80246358 6.28747399 -5.25 3.75 C-4.26515625 3.04359375 -3.2803125 2.3371875 -2.265625 1.609375 C-1.51796875 1.07828125 -0.7703125 0.5471875 0 0 Z " fill="#72AB74" transform="translate(230,135)"/>
<path d="M0 0 C1.65 0.33 3.3 0.66 5 1 C5 2.32 5 3.64 5 5 C2.5433053 6.00419637 0.08481647 7.00350501 -2.375 8 C-3.07367188 8.28617188 -3.77234375 8.57234375 -4.4921875 8.8671875 C-9.7734375 11 -9.7734375 11 -12 11 C-12 10.01 -12 9.02 -12 8 C-2.58997722 4.55580866 -2.58997722 4.55580866 2 5 C2 3.68 2 2.36 2 1 C1.34 0.67 0.68 0.34 0 0 Z " fill="#6ABADC" transform="translate(187,15)"/>
<path d="M0 0 C0.99 0.33 1.98 0.66 3 1 C1.61860662 2.3482881 0.2192352 3.67817378 -1.1875 5 C-1.96480469 5.7425 -2.74210938 6.485 -3.54296875 7.25 C-6.33045204 9.23536171 -7.65781368 9.37992882 -11 9 C-10.6875 7.125 -10.6875 7.125 -10 5 C-7 3 -7 3 -3.875 2.5 C-2.92625 2.335 -1.9775 2.17 -1 2 C-0.67 1.34 -0.34 0.68 0 0 Z " fill="#67A447" transform="translate(222,223)"/>
<path d="M0 0 C2.35171131 0.59861742 4.6859378 1.26924352 7 2 C7.33 2.66 7.66 3.32 8 4 C6.35 3.67 4.7 3.34 3 3 C2.67 3.66 2.34 4.32 2 5 C2 4.34 2 3.68 2 3 C1.01 2.67 0.02 2.34 -1 2 C-0.67 1.34 -0.34 0.68 0 0 Z M-1 3 C-0.67 3.99 -0.34 4.98 0 6 C0.8971875 6.1546875 0.8971875 6.1546875 1.8125 6.3125 C5.24098994 7.39002541 6.22625887 10.02264882 8 13 C5.00779732 11.63629701 2.70973471 10.05091917 0.25 7.875 C-0.36359375 7.33617187 -0.9771875 6.79734375 -1.609375 6.2421875 C-2.06828125 5.83226562 -2.5271875 5.42234375 -3 5 C-2.34 4.34 -1.68 3.68 -1 3 Z " fill="#1E4387" transform="translate(54,226)"/>
<path d="M0 0 C0.24002263 2.8802715 0.23893649 4.57242944 -1.1875 7.125 C-3.2887833 9.29874134 -5.29821522 10.64910761 -8 12 C-8.99 12 -9.98 12 -11 12 C-9.36285727 8.82201706 -4.14450342 0 0 0 Z " fill="#679C6B" transform="translate(228,221)"/>
<path d="M0 0 C2.82613703 3.44024219 5.39131533 6.95122977 7.8125 10.6875 C8.43769531 11.64011719 9.06289062 12.59273437 9.70703125 13.57421875 C10.13371094 14.37472656 10.56039062 15.17523438 11 16 C10.67 16.66 10.34 17.32 10 18 C9.34 18 8.68 18 8 18 C7.38125 16.6696875 7.38125 16.6696875 6.75 15.3125 C5.15855253 11.99410878 5.15855253 11.99410878 2.875 9.5625 C0.55159213 6.38717591 0.30380827 3.8735555 0 0 Z " fill="#6DA564" transform="translate(195,131)"/>
<path d="M0 0 C2.97 0.33 5.94 0.66 9 1 C9 1.66 9 2.32 9 3 C9.99 3.33 10.98 3.66 12 4 C11.34 4 10.68 4 10 4 C10 4.66 10 5.32 10 6 C1.42857143 5.28571429 1.42857143 5.28571429 -2 2 C-1.34 2 -0.68 2 0 2 C0 1.34 0 0.68 0 0 Z " fill="#132166" transform="translate(93,251)"/>
<path d="M0 0 C0.33 0.99 0.66 1.98 1 3 C1.99 3 2.98 3 4 3 C3.67 4.32 3.34 5.64 3 7 C3.33 7 3.66 7 4 7 C4 13.93 4 20.86 4 28 C3.67 28 3.34 28 3 28 C2.49595781 24.08384244 1.99746767 20.1669977 1.5 16.25 C1.35691406 15.13882813 1.21382812 14.02765625 1.06640625 12.8828125 C0.93105469 11.81289062 0.79570312 10.74296875 0.65625 9.640625 C0.53056641 8.65610352 0.40488281 7.67158203 0.27539062 6.65722656 C0 4 0 4 0 0 Z " fill="#7EB186" transform="translate(202,210)"/>
<path d="M0 0 C0.33 0.66 0.66 1.32 1 2 C-0.24282012 4.45038293 -1.52882339 6.773325 -2.9375 9.125 C-3.32357422 9.78371094 -3.70964844 10.44242188 -4.10742188 11.12109375 C-5.06446578 12.751613 -6.03132815 14.37636184 -7 16 C-8.45607397 11.5438273 -7.00954181 9.16793857 -5 5 C-4.67 4.21625 -4.34 3.4325 -4 2.625 C-3 1 -3 1 0 0 Z " fill="#529155" transform="translate(251,192)"/>
<path d="M0 0 C0.66 0.33 1.32 0.66 2 1 C2.6328125 3.06640625 2.6328125 3.06640625 3.125 5.5625 C3.29257812 6.38878906 3.46015625 7.21507812 3.6328125 8.06640625 C3.75398438 8.70449219 3.87515625 9.34257812 4 10 C3.195625 10.12375 2.39125 10.2475 1.5625 10.375 C0.716875 10.58125 -0.12875 10.7875 -1 11 C-1.33 11.66 -1.66 12.32 -2 13 C-3.0625 11.1875 -3.0625 11.1875 -4 9 C-3.67 8.01 -3.34 7.02 -3 6 C-2.67 6 -2.34 6 -2 6 C-1.34 4.02 -0.68 2.04 0 0 Z " fill="#2A66A6" transform="translate(21,176)"/>
<path d="M0 0 C0.33 0 0.66 0 1 0 C1.02505615 0.90242432 1.0501123 1.80484863 1.07592773 2.73461914 C1.17154627 6.10988834 1.27074827 9.48501394 1.37231445 12.86010742 C1.41539933 14.3157953 1.45709075 15.77152517 1.49731445 17.22729492 C1.55566411 19.33004361 1.61916516 21.43258606 1.68359375 23.53515625 C1.72025146 24.797229 1.75690918 26.05930176 1.79467773 27.35961914 C1.99857453 30.97472628 2.43443786 34.42749891 3 38 C2.34 38 1.68 38 1 38 C-0.58645357 34.82709287 -0.12078213 31.41174616 -0.09765625 27.9296875 C-0.0962413 27.13345978 -0.09482635 26.33723206 -0.09336853 25.51687622 C-0.08776345 22.9695462 -0.07521014 20.42230353 -0.0625 17.875 C-0.05748565 16.14974085 -0.05292263 14.42448033 -0.04882812 12.69921875 C-0.03779237 8.46611209 -0.02052436 4.23307086 0 0 Z " fill="#165794" transform="translate(9,118)"/>
<path d="M0 0 C0 0.99 0 1.98 0 3 C0.66 3 1.32 3 2 3 C2.99 5.31 3.98 7.62 5 10 C2.16661778 8.62159784 -0.55688806 7.13581614 -3.25 5.5 C-3.95640625 5.0771875 -4.6628125 4.654375 -5.390625 4.21875 C-5.92171875 3.8165625 -6.4528125 3.414375 -7 3 C-7 2.34 -7 1.68 -7 1 C-4.50935112 0.31292445 -2.62113708 0 0 0 Z " fill="#8CBE58" transform="translate(115,82)"/>
<path d="M0 0 C1.953125 0.15234375 1.953125 0.15234375 4 1 C5.046875 3.06640625 5.046875 3.06640625 5.75 5.5625 C5.99234375 6.38878906 6.2346875 7.21507812 6.484375 8.06640625 C6.65453125 8.70449219 6.8246875 9.34257812 7 10 C6.01 10.33 5.02 10.66 4 11 C4 10.34 4 9.68 4 9 C2.35 8.67 0.7 8.34 -1 8 C-0.7215625 7.1028125 -0.7215625 7.1028125 -0.4375 6.1875 C0.22093687 3.83591238 0.22093687 3.83591238 -1 1 C-0.67 0.67 -0.34 0.34 0 0 Z " fill="#2C6BA5" transform="translate(185,200)"/>
<path d="M0 0 C-0.33 0.556875 -0.66 1.11375 -1 1.6875 C-2.1309601 4.30284522 -2.15662974 6.1806646 -2 9 C-2.99 9.33 -3.98 9.66 -5 10 C-5 9.34 -5 8.68 -5 8 C-5.66 8 -6.32 8 -7 8 C-7.33 7.34 -7.66 6.68 -8 6 C-8.66 6 -9.32 6 -10 6 C-10 5.34 -10 4.68 -10 4 C-9.34 3.67 -8.68 3.34 -8 3 C-7.67 2.34 -7.34 1.68 -7 1 C-4.61370553 0.38812962 -2.46459429 0 0 0 Z " fill="#68A94B" transform="translate(179,102)"/>
<path d="M0 0 C6.53562995 2.11134799 12.71766003 4.73820257 18.90625 7.71484375 C18.90625 8.04484375 18.90625 8.37484375 18.90625 8.71484375 C17.46788249 8.60025682 16.03054034 8.47275259 14.59375 8.33984375 C13.79324219 8.27023438 12.99273437 8.200625 12.16796875 8.12890625 C9.90625 7.71484375 9.90625 7.71484375 6.90625 5.71484375 C6.90625 5.05484375 6.90625 4.39484375 6.90625 3.71484375 C5.25625 3.71484375 3.60625 3.71484375 1.90625 3.71484375 C1.90625 3.05484375 1.90625 2.39484375 1.90625 1.71484375 C-0.40375 1.71484375 -2.71375 1.71484375 -5.09375 1.71484375 C-2.09375 -0.28515625 -2.09375 -0.28515625 0 0 Z " fill="#6AB3D8" transform="translate(66.09375,89.28515625)"/>
<path d="M0 0 C5.40489519 1.52012677 8.98492628 5.27385218 13 9 C12.01 9.33 11.02 9.66 10 10 C8.31503702 9.03114628 6.64821244 8.03013277 5 7 C4.01 7 3.02 7 2 7 C1.01 5.02 0.02 3.04 -1 1 C-0.67 0.67 -0.34 0.34 0 0 Z " fill="#0A3983" transform="translate(45,217)"/>
<path d="M0 0 C0.7734375 -0.00515625 1.546875 -0.0103125 2.34375 -0.015625 C4.5 0.25 4.5 0.25 7.5 2.25 C6.0682384 2.94937202 4.62932968 3.63412718 3.1875 4.3125 C2.38699219 4.69535156 1.58648437 5.07820312 0.76171875 5.47265625 C-1.5 6.25 -1.5 6.25 -4.5 5.25 C-4.5 4.59 -4.5 3.93 -4.5 3.25 C-2.85 3.58 -1.2 3.91 0.5 4.25 C0.5 3.59 0.5 2.93 0.5 2.25 C-2.14 2.25 -4.78 2.25 -7.5 2.25 C-4.377998 0.16866533 -3.56733011 -0.0237822 0 0 Z " fill="#3E4C89" transform="translate(184.5,248.75)"/>
<path d="M0 0 C0.33 0 0.66 0 1 0 C1.25 5.625 1.25 5.625 -1 9 C-1.39013716 10.9896995 -1.73202649 12.99019869 -2 15 C-2.99 15 -3.98 15 -5 15 C-5.33 15.99 -5.66 16.98 -6 18 C-6.33 17.34 -6.66 16.68 -7 16 C-5.92664301 13.23325418 -4.79739939 10.56805742 -3.5625 7.875 C-3.22412109 7.12089844 -2.88574219 6.36679688 -2.53710938 5.58984375 C-1.69839399 3.72340669 -0.85008607 1.8612857 0 0 Z " fill="#579CC6" transform="translate(21,75)"/>
<path d="M0 0 C2.0625 0.4375 2.0625 0.4375 4 1 C1.26965065 3.73034935 -1.97312216 4.78663731 -5.5 6.1875 C-6.18964844 6.47302734 -6.87929688 6.75855469 -7.58984375 7.05273438 C-9.36904176 7.76545405 -11.18317788 8.3895311 -13 9 C-13.66 8.67 -14.32 8.34 -15 8 C-14.67 7.34 -14.34 6.68 -14 6 C-13.01 6 -12.02 6 -11 6 C-11 5.34 -11 4.68 -11 4 C-10.28972656 3.79503906 -9.57945313 3.59007813 -8.84765625 3.37890625 C-7.92855469 3.10949219 -7.00945313 2.84007813 -6.0625 2.5625 C-5.14597656 2.29566406 -4.22945312 2.02882813 -3.28515625 1.75390625 C-1.0597507 1.20973949 -1.0597507 1.20973949 0 0 Z " fill="#4299C9" transform="translate(61,71)"/>
<path d="M0 0 C0.99 0.33 1.98 0.66 3 1 C2.01 1.33 1.02 1.66 0 2 C0 1.34 0 0.68 0 0 Z M0 3 C-5.49274298 5.94254088 -9.84597554 6.10256707 -16 6 C-16.33 6.66 -16.66 7.32 -17 8 C-17.66 7.34 -18.32 6.68 -19 6 C-12.98192247 3.05498334 -6.59409678 0.80196774 0 3 Z " fill="#8EBF62" transform="translate(167,49)"/>
<path d="M0 0 C0.66 0 1.32 0 2 0 C1.60935585 2.46528135 1.26760629 3.73307988 -0.5234375 5.51953125 C-1.43996094 6.15955078 -1.43996094 6.15955078 -2.375 6.8125 C-2.98085937 7.25207031 -3.58671875 7.69164062 -4.2109375 8.14453125 C-6 9 -6 9 -9 8 C-8.34 6.02 -7.68 4.04 -7 2 C-4.66666667 2 -2.33333333 2 0 2 C0 1.34 0 0.68 0 0 Z " fill="#609769" transform="translate(214,233)"/>
<path d="M0 0 C0.33 0 0.66 0 1 0 C0.13924051 10.39706862 0.13924051 10.39706862 -2 14 C-4.07421875 14.625 -4.07421875 14.625 -6 15 C-4.36041242 9.76727367 -2.61047965 4.84803364 0 0 Z " fill="#488849" transform="translate(255,178)"/>
<path d="M0 0 C3.63559661 3.43361902 6.36113346 6.7973607 9 11 C8.67 11.66 8.34 12.32 8 13 C7.01 13 6.02 13 5 13 C4.54625 12.071875 4.0925 11.14375 3.625 10.1875 C2.0578367 6.96078611 2.0578367 6.96078611 0 4 C0 2.68 0 1.36 0 0 Z " fill="#529AC4" transform="translate(165,163)"/>
<path d="M0 0 C7.48291572 6.15034169 7.48291572 6.15034169 10 10 C9.67 10.66 9.34 11.32 9 12 C2.25 8.375 2.25 8.375 0 5 C-0.125 2.3125 -0.125 2.3125 0 0 Z " fill="#5DA6CF" transform="translate(155,151)"/>
<path d="M0 0 C2.5 1.6875 2.5 1.6875 5 4 C5.3125 6.75 5.3125 6.75 5 9 C5.66 9.33 6.32 9.66 7 10 C6.01 10.33 5.02 10.66 4 11 C3.67 9.35 3.34 7.7 3 6 C1.35 6.66 -0.3 7.32 -2 8 C-2.33 7.01 -2.66 6.02 -3 5 C-2.34 4.34 -1.68 3.68 -1 3 C-0.34 3.33 0.32 3.66 1 4 C0.67 2.68 0.34 1.36 0 0 Z " fill="#0C7BC3" transform="translate(150,147)"/>
<path d="M0 0 C0 0.66 0 1.32 0 2 C-4.1662436 6.0646279 -7.34076516 7.75496833 -13 9 C-13.66 8.34 -14.32 7.68 -15 7 C-12.87767021 5.82823482 -10.75242209 4.66245215 -8.625 3.5 C-7.72007812 2.99919922 -7.72007812 2.99919922 -6.796875 2.48828125 C-2.2265625 0 -2.2265625 0 0 0 Z " fill="#81B36D" transform="translate(196,93)"/>
<path d="M0 0 C2.97 0.495 2.97 0.495 6 1 C3.45543849 3.96865509 0.51005335 5.3619751 -3 7 C-3 7.66 -3 8.32 -3 9 C-4.32 8.34 -5.64 7.68 -7 7 C-7 6.34 -7 5.68 -7 5 C-5.5459375 4.5978125 -5.5459375 4.5978125 -4.0625 4.1875 C-3.051875 3.795625 -2.04125 3.40375 -1 3 C-0.67 2.01 -0.34 1.02 0 0 Z " fill="#95C478" transform="translate(159,81)"/>
<path d="M0 0 C-3 2 -3 2 -6 2 C-6 2.66 -6 3.32 -6 4 C-8.58535679 5.72357119 -10.03811614 6.44735018 -12.9375 7.1875 C-13.94103516 7.45626953 -13.94103516 7.45626953 -14.96484375 7.73046875 C-17.25476205 8.03374008 -18.79322191 7.60901437 -21 7 C-17.88036821 5.63321521 -14.75353763 4.28376009 -11.625 2.9375 C-10.73554688 2.54755859 -9.84609375 2.15761719 -8.9296875 1.75585938 C-8.07890625 1.39169922 -7.228125 1.02753906 -6.3515625 0.65234375 C-5.56604004 0.31195068 -4.78051758 -0.02844238 -3.97119141 -0.37915039 C-2 -1 -2 -1 0 0 Z " fill="#B4D592" transform="translate(143,59)"/>
<path d="M0 0 C1.32 0.33 2.64 0.66 4 1 C3.375 2.875 3.375 2.875 2 5 C-1.125 6.25 -1.125 6.25 -4 7 C-4.66 6.34 -5.32 5.68 -6 5 C-6 3.68 -6 2.36 -6 1 C-4.02 1 -2.04 1 0 1 C0 0.67 0 0.34 0 0 Z " fill="#26A6DD" transform="translate(91,56)"/>
<path d="M0 0 C-4.75 3 -4.75 3 -7 3 C-7.33 4.32 -7.66 5.64 -8 7 C-11.3 7 -14.6 7 -18 7 C-15.45307479 4.45307479 -12.82197965 3.34231152 -9.5625 1.8125 C-8.40878906 1.26207031 -7.25507813 0.71164063 -6.06640625 0.14453125 C-3 -1 -3 -1 0 0 Z " fill="#AECF94" transform="translate(212,29)"/>
<path d="M0 0 C-3 2 -3 2 -6 2 C-6.66 3.65 -7.32 5.3 -8 7 C-10.31 6.67 -12.62 6.34 -15 6 C-11.57875892 3.02500775 -4.44240633 -2.22120316 0 0 Z " fill="#91BB83" transform="translate(211,87)"/>
<path d="M0 0 C-3.73572939 4.82029598 -3.73572939 4.82029598 -7.3359375 5.33203125 C-9.5758033 5.31436669 -11.77120799 5.21850902 -14 5 C-11.75043698 2.75043698 -9.93676737 1.99489035 -7 0.8125 C-6.113125 0.44769531 -5.22625 0.08289063 -4.3125 -0.29296875 C-2 -1 -2 -1 0 0 Z " fill="#AACF81" transform="translate(122,68)"/>
<path d="M0 0 C0 0.99 0 1.98 0 3 C-2.97 2.505 -2.97 2.505 -6 2 C-6.66 3.65 -7.32 5.3 -8 7 C-8.66 7 -9.32 7 -10 7 C-10.3125 4.6875 -10.3125 4.6875 -10 2 C-6.51622514 -0.98609274 -4.33645582 -1.36288612 0 0 Z " fill="#82B25F" transform="translate(215,30)"/>
<path d="M0 0 C2.97 0.495 2.97 0.495 6 1 C6 2.32 6 3.64 6 5 C3.03 5.66 0.06 6.32 -3 7 C-2.67 5.68 -2.34 4.36 -2 3 C-1.34 3 -0.68 3 0 3 C0 2.01 0 1.02 0 0 Z " fill="#1491CD" transform="translate(183,15)"/>
<path d="M0 0 C-2.89585905 2.29648357 -5.8172031 4.04347557 -9.125 5.6875 C-10.42824219 6.34298828 -10.42824219 6.34298828 -11.7578125 7.01171875 C-14 8 -14 8 -16 8 C-16 7.34 -16 6.68 -16 6 C-15.34 6 -14.68 6 -14 6 C-13.67 5.01 -13.34 4.02 -13 3 C-11.68 3.33 -10.36 3.66 -9 4 C-9 3.34 -9 2.68 -9 2 C-5.5647952 -0.29013653 -4.014669 -0.17842973 0 0 Z " fill="#8DB971" transform="translate(189,70)"/>
<path d="M0 0 C-1.65 1.98 -3.3 3.96 -5 6 C-7.31 5.34 -9.62 4.68 -12 4 C-11 2 -11 2 -8.25 0.875 C-5.29813104 0.08026605 -3.02780163 -0.17810598 0 0 Z " fill="#7EB847" transform="translate(133,65)"/>
<path d="M0 0 C2.4294516 3.6441774 2.16179575 5.71241272 2 10 C4.31 9.34 6.62 8.68 9 8 C8.67 9.65 8.34 11.3 8 13 C7.67 12.34 7.34 11.68 7 11 C6.34 11 5.68 11 5 11 C5 11.66 5 12.32 5 13 C3.68 13 2.36 13 1 13 C0.67 8.71 0.34 4.42 0 0 Z " fill="#46923F" transform="translate(209,222)"/>
<path d="M0 0 C0 0.66 0 1.32 0 2 C-0.99 2 -1.98 2 -3 2 C-3.21081851 5.89459074 -3.21081851 5.89459074 -2 9 C-7.75 7.25 -7.75 7.25 -10 5 C-7.31217681 1.88778367 -4.19734673 0 0 0 Z " fill="#89BC67" transform="translate(194,36)"/>
<path d="M0 0 C1.60875 0.2784375 1.60875 0.2784375 3.25 0.5625 C6.40391546 0.9304568 8.09818492 1.04465343 11 0 C11 1.65 11 3.3 11 5 C7.05220686 5 4.6037898 4.52160014 1 3 C0.67 2.01 0.34 1.02 0 0 Z " fill="#1BC7F7" transform="translate(69,233)"/>
<path d="M0 0 C0.66 0.33 1.32 0.66 2 1 C1.67 1.66 1.34 2.32 1 3 C2.32 3 3.64 3 5 3 C5.66 6.3 6.32 9.6 7 13 C3.74085049 9.91702073 0.93446327 7.0838669 -1 3 C-0.67 2.01 -0.34 1.02 0 0 Z " fill="#6A82A8" transform="translate(27,199)"/>
<path d="M0 0 C0.66 0.33 1.32 0.66 2 1 C2 2.98 2 4.96 2 7 C1.01 7 0.02 7 -1 7 C-1.66 6.34 -2.32 5.68 -3 5 C-4.98 5.99 -4.98 5.99 -7 7 C-7 5.68 -7 4.36 -7 3 C-5.5459375 2.5359375 -5.5459375 2.5359375 -4.0625 2.0625 C-1.15934208 1.30476658 -1.15934208 1.30476658 0 0 Z " fill="#3C8E3B" transform="translate(222,144)"/>
<path d="M0 0 C3.3 0 6.6 0 10 0 C10.33 0.66 10.66 1.32 11 2 C9 4 9 4 6 5 C2.8125 3.125 2.8125 3.125 0 1 C0 0.67 0 0.34 0 0 Z " fill="#4B588D" transform="translate(62,239)"/>
<path d="M0 0 C1 2 1 2 0.3125 4.875 C-1.03712351 8.08838932 -2.39272995 9.74036595 -5 12 C-5.66 11.67 -6.32 11.34 -7 11 C-5.22054913 6.95579349 -2.60470327 3.53921513 0 0 Z " fill="#478548" transform="translate(243,202)"/>
<path d="M0 0 C2.475 0.99 2.475 0.99 5 2 C4.34 3.65 3.68 5.3 3 7 C2.34 6.67 1.68 6.34 1 6 C0.67 6.66 0.34 7.32 0 8 C-0.99 8 -1.98 8 -3 8 C-1.125 1.125 -1.125 1.125 0 0 Z " fill="#79A83A" transform="translate(243,188)"/>
<path d="M0 0 C5.80342274 1.48805711 10.17590879 4.59097555 15 8 C12.50907189 9.24546405 11.58919267 8.7767578 9 8 C9 7.34 9 6.68 9 6 C7.35 5.67 5.7 5.34 4 5 C4 4.34 4 3.68 4 3 C3.01 3 2.02 3 1 3 C0.67 2.01 0.34 1.02 0 0 Z " fill="#6EBADC" transform="translate(98,105)"/>
<path d="M0 0 C0.99 0.33 1.98 0.66 3 1 C1.625 3 1.625 3 0 5 C-0.66 5 -1.32 5 -2 5 C-2.33 5.99 -2.66 6.98 -3 8 C-4.32 7.01 -5.64 6.02 -7 5 C-2.25 1.125 -2.25 1.125 0 0 Z " fill="#0990DB" transform="translate(87,16)"/>
<path d="M0 0 C0.33 0 0.66 0 1 0 C1.35050464 5.841744 1.16727335 9.8531808 -2 15 C-2.33 15 -2.66 15 -3 15 C-2.5547115 9.72684667 -1.91626837 4.98229776 0 0 Z " fill="#42853F" transform="translate(260,160)"/>
<path d="M0 0 C0.33 0 0.66 0 1 0 C0.98839844 0.69867188 0.97679687 1.39734375 0.96484375 2.1171875 C0.95582031 3.02726563 0.94679688 3.93734375 0.9375 4.875 C0.92589844 5.77992188 0.91429687 6.68484375 0.90234375 7.6171875 C0.83750743 10.0168585 0.83750743 10.0168585 2 12 C1.39421747 14.01927511 0.73080266 16.02253397 0 18 C-2.34878447 14.33002427 -2.29044335 11.28403947 -2 7 C-1.45886664 4.60221941 -0.76460856 2.34161371 0 0 Z " fill="#67A053" transform="translate(257,164)"/>
<path d="M0 0 C1.32 0.33 2.64 0.66 4 1 C4 1.66 4 2.32 4 3 C5.98 2.67 7.96 2.34 10 2 C9.34 3.98 8.68 5.96 8 8 C1.42857143 4 1.42857143 4 0 0 Z " fill="#17C8F8" transform="translate(61,225)"/>
<path d="M0 0 C0.66 0.33 1.32 0.66 2 1 C-2.18596495 6.47101802 -5.06035434 9.86699663 -12 11 C-8.19588166 7.08060535 -4.18423892 3.50897269 0 0 Z " fill="#83B484" transform="translate(259,113)"/>
<path d="M0 0 C0 0.99 0 1.98 0 3 C-1.11375 2.95875 -2.2275 2.9175 -3.375 2.875 C-7.04366025 2.58878141 -7.04366025 2.58878141 -9 5 C-9 5.66 -9 6.32 -9 7 C-9.66 7 -10.32 7 -11 7 C-11.33 5.68 -11.66 4.36 -12 3 C-4.71428571 -0.42857143 -4.71428571 -0.42857143 0 0 Z " fill="#0F99D7" transform="translate(121,7)"/>
<path d="M0 0 C3.1778726 0.49654259 6.20157738 1.30366949 9.25 2.3125 C10.27867188 2.64701172 10.27867188 2.64701172 11.328125 2.98828125 C13 4 13 4 13.734375 6.10546875 C13.82203125 6.73066406 13.9096875 7.35585937 14 8 C9.02790438 6.23570801 4.56561939 3.6060834 0 1 C0 0.67 0 0.34 0 0 Z " fill="#2FBBF1" transform="translate(71,236)"/>
<path d="M0 0 C0.33 0.99 0.66 1.98 1 3 C0.67 3.66 0.34 4.32 0 5 C-0.66 5 -1.32 5 -2 5 C-2.061875 5.598125 -2.12375 6.19625 -2.1875 6.8125 C-3.3236757 9.87143458 -5.17330142 10.55041099 -8 12 C-6.49087042 7.01987239 -3.44338151 3.75740058 0 0 Z " fill="#549ECC" transform="translate(37,51)"/>
<path d="M0 0 C1.6266848 0.28211877 3.25132896 0.57602375 4.875 0.875 C5.77992188 1.03742187 6.68484375 1.19984375 7.6171875 1.3671875 C10 2 10 2 12 4 C10.39884424 4.2493357 8.79379841 4.47378648 7.1875 4.6875 C6.29417969 4.81511719 5.40085938 4.94273438 4.48046875 5.07421875 C2 5 2 5 0.17578125 3.51953125 C-0.21222656 3.01808594 -0.60023438 2.51664063 -1 2 C-0.67 1.34 -0.34 0.68 0 0 Z " fill="#5AB7DE" transform="translate(170,9)"/>
<path d="M0 0 C4.32046898 1.41680244 7.00461199 3.53763785 10.3125 6.625 C11.19550781 7.44226563 12.07851562 8.25953125 12.98828125 9.1015625 C13.65214844 9.72804687 14.31601563 10.35453125 15 11 C10.85922407 11 9.51652332 9.25260658 6.375 6.625 C5.39273438 5.81289062 4.41046875 5.00078125 3.3984375 4.1640625 C1 2 1 2 0 0 Z " fill="#31B9F1" transform="translate(55,223)"/>
<path d="M0 0 C1.875 0.1875 1.875 0.1875 4 1 C5.52164099 3.89111788 6 5.71823412 6 9 C5.01 9 4.02 9 3 9 C2.67 8.34 2.34 7.68 2 7 C1.34 6.34 0.68 5.68 0 5 C-0.125 2.375 -0.125 2.375 0 0 Z " fill="#123982" transform="translate(25,193)"/>
<path d="M0 0 C0.99 0.33 1.98 0.66 3 1 C3.144375 1.639375 3.28875 2.27875 3.4375 2.9375 C3.80104993 5.20311706 3.80104993 5.20311706 6.0625 6.25 C6.701875 6.4975 7.34125 6.745 8 7 C8 7.99 8 8.98 8 10 C6.140625 9.78515625 6.140625 9.78515625 4 9 C2.734375 6.93359375 2.734375 6.93359375 1.75 4.4375 C1.41484375 3.61121094 1.0796875 2.78492188 0.734375 1.93359375 C0.49203125 1.29550781 0.2496875 0.65742188 0 0 Z " fill="#19A3E6" transform="translate(26,187)"/>
<path d="M0 0 C1.1055189 0.93590504 2.20935453 1.87379858 3.3125 2.8125 C3.92738281 3.33457031 4.54226562 3.85664063 5.17578125 4.39453125 C6.85424679 5.87172469 8.43882034 7.40039131 10 9 C9.67 9.66 9.34 10.32 9 11 C8.38125 10.525625 7.7625 10.05125 7.125 9.5625 C5.09294454 7.97582559 5.09294454 7.97582559 3 7 C3 6.34 3 5.68 3 5 C2.01 5 1.02 5 0 5 C0 3.35 0 1.7 0 0 Z " fill="#6FB6D6" transform="translate(145,140)"/>
<path d="M0 0 C0 0.66 0 1.32 0 2 C-0.99 2 -1.98 2 -3 2 C-3.33 2.99 -3.66 3.98 -4 5 C-5.65 5.33 -7.3 5.66 -9 6 C-9 5.01 -9 4.02 -9 3 C-8.34 3 -7.68 3 -7 3 C-7 2.34 -7 1.68 -7 1 C-4.50935112 0.31292445 -2.62113708 0 0 0 Z " fill="#0F7DBF" transform="translate(50,75)"/>
<path d="M0 0 C2.36999926 3.55499889 2.92524733 5.73909778 3 10 C0.5625 12.4375 0.5625 12.4375 -2 14 C-2.66 13.67 -3.32 13.34 -4 13 C-3.34 12.01 -2.68 11.02 -2 10 C-1.34 10 -0.68 10 0 10 C0 6.7 0 3.4 0 0 Z " fill="#606992" transform="translate(200,234)"/>
<path d="M0 0 C2.475 0.495 2.475 0.495 5 1 C5 2.65 5 4.3 5 6 C5.99 6.33 6.98 6.66 8 7 C7.67 8.32 7.34 9.64 7 11 C4.69 7.37 2.38 3.74 0 0 Z " fill="#77AB6D" transform="translate(174,147)"/>
<path d="M0 0 C4.2026393 2.63886654 7.56638098 5.36440339 11 9 C9.35 8.67 7.7 8.34 6 8 C6 7.34 6 6.68 6 6 C5.01 6 4.02 6 3 6 C3 5.01 3 4.02 3 3 C1.68 3 0.36 3 -1 3 C-0.67 2.01 -0.34 1.02 0 0 Z " fill="#93BB79" transform="translate(156,90)"/>
<path d="M0 0 C3 1 3 1 4.25 2.8125 C5.11637742 5.33943414 4.88492145 6.52221994 4 9 C1.47740939 7.02579865 1.0070192 6.03254358 0.3125 2.8125 C0.209375 1.884375 0.10625 0.95625 0 0 Z " fill="#123377" transform="translate(32,204)"/>
<path d="M0 0 C1.65 0 3.3 0 5 0 C4.67 3.3 4.34 6.6 4 10 C1.07490914 6.09987886 0.52464905 4.61691161 0 0 Z " fill="#114280" transform="translate(16,176)"/>
<path d="M0 0 C1.29608947 0.93137592 2.58671632 1.8703566 3.875 2.8125 C4.59429687 3.33457031 5.31359375 3.85664063 6.0546875 4.39453125 C8 6 8 6 10 9 C7.33289346 8.84759391 5.5494129 8.50635081 3.5546875 6.66796875 C0 2.49375 0 2.49375 0 0 Z " fill="#5CA9D0" transform="translate(133,129)"/>
<path d="M0 0 C-0.33 1.65 -0.66 3.3 -1 5 C-2.65 5 -4.3 5 -6 5 C-6.33 3.68 -6.66 2.36 -7 1 C-4 0 -4 0 0 0 Z " fill="#509945" transform="translate(253,88)"/>
<path d="M0 0 C-1.32 1.32 -2.64 2.64 -4 4 C-4.99 3.67 -5.98 3.34 -7 3 C-9.35188447 3.59793673 -11.68925595 4.25881795 -14 5 C-14.33 4.34 -14.66 3.68 -15 3 C-13.44033782 2.491217 -11.87710759 1.99336531 -10.3125 1.5 C-9.44238281 1.2215625 -8.57226562 0.943125 -7.67578125 0.65625 C-5.00608323 0.00149195 -2.73603316 -0.11831495 0 0 Z " fill="#0D96DC" transform="translate(107,11)"/>
<path d="M0 0 C2.59381229 3.89071844 2.63187808 6.36166385 3 11 C2.67 11.66 2.34 12.32 2 13 C1.34 13 0.68 13 0 13 C-0.33 12.01 -0.66 11.02 -1 10 C-0.34 10 0.32 10 1 10 C1 8.02 1 6.04 1 4 C0.01 3.67 -0.98 3.34 -2 3 C-1.34 2.67 -0.68 2.34 0 2 C0 1.34 0 0.68 0 0 Z " fill="#14266F" transform="translate(198,231)"/>
<path d="M0 0 C2 2 2 2 2 6 C0.02 6.66 -1.96 7.32 -4 8 C-4 7.01 -4 6.02 -4 5 C-2.68 5 -1.36 5 0 5 C0 4.34 0 3.68 0 3 C-0.66 3 -1.32 3 -2 3 C-2 2.34 -2 1.68 -2 1 C-1.34 0.67 -0.68 0.34 0 0 Z " fill="#1B509E" transform="translate(190,239)"/>
<path d="M0 0 C2.50828536 1.90354807 3.00135005 3.00579726 3.73046875 6.13671875 C3.88128906 7.30847656 4.03210938 8.48023438 4.1875 9.6875 C4.34605469 10.86699219 4.50460938 12.04648438 4.66796875 13.26171875 C4.77753906 14.16535156 4.88710938 15.06898438 5 16 C2.70311431 13.70311431 2.28148697 12.21071829 1.375 9.125 C1.11460938 8.26132813 0.85421875 7.39765625 0.5859375 6.5078125 C0 4 0 4 0 0 Z " fill="#1E9DE5" transform="translate(21,170)"/>
<path d="M0 0 C0.33 1.32 0.66 2.64 1 4 C0.34 4 -0.32 4 -1 4 C-1.33 5.32 -1.66 6.64 -2 8 C-3.32 7.67 -4.64 7.34 -6 7 C-4.02 4.69 -2.04 2.38 0 0 Z " fill="#4D9ECE" transform="translate(44,43)"/>
<path d="M0 0 C0.99 0.66 1.98 1.32 3 2 C2.375 3.875 2.375 3.875 1 6 C-2.125 7.25 -2.125 7.25 -5 8 C-5.33 7.01 -5.66 6.02 -6 5 C-4.68 5.33 -3.36 5.66 -2 6 C-2 5.34 -2 4.68 -2 4 C-1.34 4 -0.68 4 0 4 C0 2.68 0 1.36 0 0 Z " fill="#93BE81" transform="translate(229,44)"/>
<path d="M0 0 C1.31611677 0.95336021 2.62778961 1.91285774 3.9375 2.875 C4.66839844 3.40867188 5.39929688 3.94234375 6.15234375 4.4921875 C8 6 8 6 9 8 C6.625 7.75 6.625 7.75 4 7 C2.6875 4.9375 2.6875 4.9375 2 3 C1.34 3 0.68 3 0 3 C0 2.01 0 1.02 0 0 Z " fill="#8FBB79" transform="translate(216,32)"/>
<path d="M0 0 C-0.33 0.66 -0.66 1.32 -1 2 C-2.051875 1.979375 -3.10375 1.95875 -4.1875 1.9375 C-7.32704904 1.98896802 -9.96883396 2.26517187 -13 3 C-12.01 2.67 -11.02 2.34 -10 2 C-10 1.34 -10 0.68 -10 0 C-6.42355152 -1.2380014 -3.66305234 -0.74926071 0 0 Z " fill="#6EAB40" transform="translate(204,36)"/>
<path d="M0 0 C2.6015625 -0.29296875 2.6015625 -0.29296875 5.625 -0.1875 C7.12933594 -0.14689453 7.12933594 -0.14689453 8.6640625 -0.10546875 C9.43492187 -0.07066406 10.20578125 -0.03585937 11 0 C11 0.33 11 0.66 11 1 C6.46298506 2.45184478 2.81938524 3.23509196 -2 3 C-1.34 2.01 -0.68 1.02 0 0 Z " fill="#141D63" transform="translate(158,257)"/>
<path d="M0 0 C2.31 0.66 4.62 1.32 7 2 C7 2.66 7 3.32 7 4 C6.34 4 5.68 4 5 4 C4.67 4.66 4.34 5.32 4 6 C2.68 5.34 1.36 4.68 0 4 C0 2.68 0 1.36 0 0 Z " fill="#112671" transform="translate(80,244)"/>
<path d="M0 0 C0 1.32 0 2.64 0 4 C-2.31 4.33 -4.62 4.66 -7 5 C-7 4.01 -7 3.02 -7 2 C-2.25 0 -2.25 0 0 0 Z " fill="#3D8D3B" transform="translate(231,139)"/>
<path d="M0 0 C2.95808458 1.37339641 5.64139564 2.72563151 8 5 C8.25 7.6875 8.25 7.6875 8 10 C4.71211176 6.88983545 2.16264012 3.98381075 0 0 Z " fill="#84B472" transform="translate(159,127)"/>
<path d="M0 0 C-0.33 0.66 -0.66 1.32 -1 2 C-2.65 1.67 -4.3 1.34 -6 1 C-6 1.66 -6 2.32 -6 3 C-7.98 3.33 -9.96 3.66 -12 4 C-5.5 -1.30263158 -5.5 -1.30263158 0 0 Z " fill="#A7C59C" transform="translate(249,69)"/>
<path d="M0 0 C2.31 0 4.62 0 7 0 C3.63576723 2.96052484 0.30840713 3.92289822 -4 5 C-3.67 4.01 -3.34 3.02 -3 2 C-2.01 2 -1.02 2 0 2 C0 1.34 0 0.68 0 0 Z " fill="#5EB0D8" transform="translate(79,63)"/>
<path d="M0 0 C2.97 0 5.94 0 9 0 C9 0.66 9 1.32 9 2 C3 4 3 4 0 3 C0 2.01 0 1.02 0 0 Z " fill="#142065" transform="translate(176,251)"/>
<path d="M0 0 C2.25 0.125 2.25 0.125 5 1 C7.3125 4.0625 7.3125 4.0625 9 7 C5.18315774 5.44499019 2.80804268 2.96404505 0 0 Z " fill="#858DAE" transform="translate(53,232)"/>
<path d="M0 0 C0.99 0.33 1.98 0.66 3 1 C2.67 3.64 2.34 6.28 2 9 C-0.45484649 6.86535088 -1.68134222 5.29279709 -2 2 C-1.34 1.34 -0.68 0.68 0 0 Z " fill="#5A7CA8" transform="translate(24,191)"/>
<path d="M0 0 C0 0.66 0 1.32 0 2 C-2.30276574 4.21747812 -3.52480092 4.96760006 -6.75 5.1875 C-7.86375 5.0946875 -7.86375 5.0946875 -9 5 C-4.16129032 0 -4.16129032 0 0 0 Z " fill="#609A5F" transform="translate(224,142)"/>
<path d="M0 0 C2.97 0.99 5.94 1.98 9 3 C9 3.99 9 4.98 9 6 C4.58763974 6 3.21615077 3.9302707 0 1 C0 0.67 0 0.34 0 0 Z " fill="#A2C880" transform="translate(124,95)"/>
<path d="M0 0 C2.97 0.495 2.97 0.495 6 1 C3.64722731 3.72426311 1.37503669 4.8141763 -2 6 C-2 5.01 -2 4.02 -2 3 C-1.01 3 -0.02 3 1 3 C0.67 2.01 0.34 1.02 0 0 Z " fill="#73A86A" transform="translate(244,92)"/>
<path d="M0 0 C0.61875 0.33 1.2375 0.66 1.875 1 C3.91018344 2.14193235 3.91018344 2.14193235 6 2 C5.67 3.32 5.34 4.64 5 6 C3.35 6 1.7 6 0 6 C0 4.02 0 2.04 0 0 Z " fill="#66A93E" transform="translate(184,64)"/>
<path d="M0 0 C0.66 0.33 1.32 0.66 2 1 C1.375 2.9375 1.375 2.9375 0 5 C-3.125 5.75 -3.125 5.75 -6 6 C-4 4 -2 2 0 0 Z " fill="#4C9DCB" transform="translate(64,26)"/>
<path d="M0 0 C2.97851562 0.43945312 2.97851562 0.43945312 5.95703125 0.87890625 C8.2025342 1.13904799 8.2025342 1.13904799 11 0 C10.67 1.32 10.34 2.64 10 4 C8.72125 3.71125 7.4425 3.4225 6.125 3.125 C5.40570313 2.96257812 4.68640625 2.80015625 3.9453125 2.6328125 C2 2 2 2 0 0 Z " fill="#27BFF6" transform="translate(85,244)"/>
<path d="M0 0 C-0.57344937 2.86724686 -0.8614515 3.8614515 -3 6 C-3.99 6 -4.98 6 -6 6 C-5.6875 4.125 -5.6875 4.125 -5 2 C-2 0 -2 0 0 0 Z " fill="#669D37" transform="translate(217,226)"/>
<path d="M0 0 C1.65 0 3.3 0 5 0 C3.515 3.465 3.515 3.465 2 7 C0 5 0 5 -0.125 2.375 C-0.08375 1.59125 -0.0425 0.8075 0 0 Z " fill="#579A56" transform="translate(192,176)"/>
<path d="M0 0 C0.99 0 1.98 0 3 0 C5.09350689 3.4019487 5.17942163 6.05272412 5 10 C2.35534962 6.8745041 1.15585285 3.91211733 0 0 Z " fill="#6FA967" transform="translate(182,158)"/>
<path d="M0 0 C2.52845528 1.26422764 2.76422764 2.52845528 4 5 C4.66 5.33 5.32 5.66 6 6 C5.67 6.99 5.34 7.98 5 9 C3.68 8.67 2.36 8.34 1 8 C0.67 5.36 0.34 2.72 0 0 Z " fill="#44913C" transform="translate(200,143)"/>
<path d="M0 0 C1.4391134 0.28359887 2.87625518 0.57721399 4.3125 0.875 C5.11300781 1.03742188 5.91351563 1.19984375 6.73828125 1.3671875 C9 2 9 2 12 4 C5.375 4.125 5.375 4.125 2 3 C2 2.34 2 1.68 2 1 C1.34 0.67 0.68 0.34 0 0 Z " fill="#67AFD5" transform="translate(52,85)"/>
<path d="M0 0 C0.53625 0.226875 1.0725 0.45375 1.625 0.6875 C-0.6301922 2.9426922 -2.3797587 3.66473468 -5.375 4.6875 C-6.365 4.6875 -7.355 4.6875 -8.375 4.6875 C-8.375 4.0275 -8.375 3.3675 -8.375 2.6875 C-2.95961538 -0.38942308 -2.95961538 -0.38942308 0 0 Z " fill="#55A7D1" transform="translate(63.375,71.3125)"/>
<path d="M0 0 C1.98 0 3.96 0 6 0 C2.63576723 2.96052484 -0.69159287 3.92289822 -5 5 C-4.67 4.01 -4.34 3.02 -4 2 C-2.68 2 -1.36 2 0 2 C0 1.34 0 0.68 0 0 Z " fill="#6DD1E7" transform="translate(116,48)"/>
<path d="M0 0 C2.475 0.99 2.475 0.99 5 2 C4.01 3.485 4.01 3.485 3 5 C1.68 5 0.36 5 -1 5 C-0.67 3.35 -0.34 1.7 0 0 Z " fill="#0BBDF8" transform="translate(121,41)"/>
<path d="M0 0 C0.66 0.33 1.32 0.66 2 1 C0.06745228 3.0245738 -1.63158688 4.42105792 -4 6 C-6.1875 5.625 -6.1875 5.625 -8 5 C-6.71475739 4.13619741 -5.42157581 3.28419631 -4.125 2.4375 C-3.04605469 1.72400391 -3.04605469 1.72400391 -1.9453125 0.99609375 C-1.30335937 0.66738281 -0.66140625 0.33867187 0 0 Z " fill="#64ACD6" transform="translate(74,20)"/>
<path d="M0 0 C1.67542976 0.28604898 3.34385343 0.61781233 5 1 C3.68 1.33 2.36 1.66 1 2 C1 2.99 1 3.98 1 5 C0.34 5 -0.32 5 -1 5 C-1 5.66 -1 6.32 -1 7 C-1.66 7 -2.32 7 -3 7 C-1.125 1.125 -1.125 1.125 0 0 Z " fill="#3CAAE0" transform="translate(182,13)"/>
<path d="M0 0 C4.21878192 -0.19622241 7.17010894 0.19769832 11 2 C11 2.33 11 2.66 11 3 C8.36 3.66 5.72 4.32 3 5 C3 4.01 3 3.02 3 2 C2.01 1.34 1.02 0.68 0 0 Z " fill="#0A9DE0" transform="translate(157,9)"/>
<path d="M0 0 C0.99 0 1.98 0 3 0 C3.33 0.66 3.66 1.32 4 2 C4.99 2 5.98 2 7 2 C7 3.32 7 4.64 7 6 C4.0625 5.25 4.0625 5.25 1 4 C0.125 1.875 0.125 1.875 0 0 Z " fill="#133076" transform="translate(38,214)"/>
<path d="M0 0 C0.66 0.33 1.32 0.66 2 1 C1.34 2.32 0.68 3.64 0 5 C-1.98 5 -3.96 5 -6 5 C-6 4.01 -6 3.02 -6 2 C-5.38125 1.855625 -4.7625 1.71125 -4.125 1.5625 C-1.96741678 1.06847775 -1.96741678 1.06847775 0 0 Z " fill="#87B886" transform="translate(213,147)"/>
<path d="M0 0 C1.32 0 2.64 0 4 0 C4 2.64 4 5.28 4 8 C2 6.25 2 6.25 0 4 C0 2.68 0 1.36 0 0 Z " fill="#50933A" transform="translate(258,144)"/>
<path d="M0 0 C0.66 0 1.32 0 2 0 C2.33 2.64 2.66 5.28 3 8 C2.01 8 1.02 8 0 8 C0 5.36 0 2.72 0 0 Z " fill="#126EAE" transform="translate(11,104)"/>
<path d="M0 0 C2.25 -0.375 2.25 -0.375 5 0 C7.3125 3 7.3125 3 9 6 C5.88802644 4.50164236 2.91164984 2.86022073 0 1 C0 0.67 0 0.34 0 0 Z " fill="#A7C987" transform="translate(111,86)"/>
<path d="M0 0 C0 0.66 0 1.32 0 2 C-3.47325181 3.1577506 -6.36067448 3.06866652 -10 3 C-6.88378718 -0.11621282 -4.21175599 -0.11383124 0 0 Z " fill="#9CC27B" transform="translate(167,49)"/>
<path d="M0 0 C1.32 0.66 2.64 1.32 4 2 C2.68 2.33 1.36 2.66 0 3 C0 2.01 0 1.02 0 0 Z M-3 2 C-2.34 2.33 -1.68 2.66 -1 3 C-1.33 3.99 -1.66 4.98 -2 6 C-3.32 5.34 -4.64 4.68 -6 4 C-5.01 3.34 -4.02 2.68 -3 2 Z " fill="#078BD6" transform="translate(65,29)"/>
<path d="M0 0 C2.475 0.495 2.475 0.495 5 1 C5 2.32 5 3.64 5 5 C3.35 5.33 1.7 5.66 0 6 C0.66 5.67 1.32 5.34 2 5 C2 3.68 2 2.36 2 1 C1.34 0.67 0.68 0.34 0 0 Z " fill="#9ECFE3" transform="translate(187,15)"/>
<path d="M0 0 C0.66 0.33 1.32 0.66 2 1 C1.34 2.65 0.68 4.3 0 6 C1.98 6.495 1.98 6.495 4 7 C3.01 7.495 3.01 7.495 2 8 C1.34 8.99 0.68 9.98 0 11 C-1.125 3.375 -1.125 3.375 0 0 Z " fill="#32833A" transform="translate(203,202)"/>
<path d="M0 0 C0.99 0.33 1.98 0.66 3 1 C2.67 3.31 2.34 5.62 2 8 C1.34 7.67 0.68 7.34 0 7 C0 4.69 0 2.38 0 0 Z " fill="#0E61A4" transform="translate(181,192)"/>
<path d="M0 0 C0.33 0.66 0.66 1.32 1 2 C0.06553465 4.03144641 -0.93224776 6.03533587 -2 8 C-4 5 -4 5 -3.8125 2.875 C-3.544375 2.25625 -3.27625 1.6375 -3 1 C-2.01 0.67 -1.02 0.34 0 0 Z " fill="#669E6A" transform="translate(251,192)"/>
<path d="M0 0 C2.97 0.495 2.97 0.495 6 1 C6.33 2.98 6.66 4.96 7 7 C5.83040013 6.02433888 4.66438823 5.044375 3.5 4.0625 C2.8503125 3.51722656 2.200625 2.97195312 1.53125 2.41015625 C1.0259375 1.94480469 0.520625 1.47945313 0 1 C0 0.67 0 0.34 0 0 Z " fill="#87B973" transform="translate(152,120)"/>
<path d="M0 0 C0.66 0 1.32 0 2 0 C2 0.66 2 1.32 2 2 C2.66 2.33 3.32 2.66 4 3 C4 4.32 4 5.64 4 7 C2.68 6.34 1.36 5.68 0 5 C0.33 4.67 0.66 4.34 1 4 C0.34 3.67 -0.32 3.34 -1 3 C-0.67 2.01 -0.34 1.02 0 0 Z " fill="#76B240" transform="translate(124,89)"/>
<path d="M0 0 C2.97 0.495 2.97 0.495 6 1 C4.75 2.5625 4.75 2.5625 3 4 C0.8125 3.6875 0.8125 3.6875 -1 3 C-0.67 2.01 -0.34 1.02 0 0 Z " fill="#88B86C" transform="translate(159,81)"/>
<path d="M0 0 C1.67542976 0.28604898 3.34385343 0.61781233 5 1 C4.67 2.32 4.34 3.64 4 5 C2.0625 4.6875 2.0625 4.6875 0 4 C-0.33 3.01 -0.66 2.02 -1 1 C-0.67 0.67 -0.34 0.34 0 0 Z " fill="#6DB03C" transform="translate(184,42)"/>
<path d="M0 0 C-1.32 0.33 -2.64 0.66 -4 1 C-4 1.66 -4 2.32 -4 3 C-6.31 3.33 -8.62 3.66 -11 4 C-3.77464789 -1.88732394 -3.77464789 -1.88732394 0 0 Z " fill="#6EB6DD" transform="translate(91,14)"/>
<path d="M0 0 C0.66 0.66 1.32 1.32 2 2 C-0.64 2 -3.28 2 -6 2 C-6.33 1.34 -6.66 0.68 -7 0 C-4.29393021 -1.35303489 -2.8671629 -0.7884698 0 0 Z " fill="#38A5D6" transform="translate(170,9)"/>
<path d="M0 0 C1.32 0 2.64 0 4 0 C3.67 1.32 3.34 2.64 3 4 C1.68 4.33 0.36 4.66 -1 5 C-0.67 3.35 -0.34 1.7 0 0 Z " fill="#353F79" transform="translate(193,245)"/>
<path d="M0 0 C1.485 0.99 1.485 0.99 3 2 C3.40843923 4.71203652 3.13336867 7.2437142 3 10 C-0.00617269 6.99382731 0.40414684 4.17618402 0 0 Z " fill="#254F8C" transform="translate(192,214)"/>
<path d="M0 0 C0.33 1.32 0.66 2.64 1 4 C-0.32 4.99 -1.64 5.98 -3 7 C-3.1875 4.625 -3.1875 4.625 -3 2 C-2.01 1.34 -1.02 0.68 0 0 Z " fill="#5F9868" transform="translate(237,212)"/>
<path d="M0 0 C3 2 3 2 3.6875 4.125 C3.790625 4.74375 3.89375 5.3625 4 6 C2.68 5.67 1.36 5.34 0 5 C-0.5625 3.0625 -0.5625 3.0625 -1 1 C-0.67 0.67 -0.34 0.34 0 0 Z " fill="#0FB1EC" transform="translate(36,197)"/>
<path d="M0 0 C0.66 0 1.32 0 2 0 C2 1.98 2 3.96 2 6 C0.68 6.33 -0.64 6.66 -2 7 C-1.34 4.69 -0.68 2.38 0 0 Z " fill="#418441" transform="translate(251,186)"/>
<path d="M0 0 C0.33 0 0.66 0 1 0 C1 3.96 1 7.92 1 12 C0.67 12 0.34 12 0 12 C-2.21538462 4.61538462 -2.21538462 4.61538462 -1.125 1.5 C-0.75375 1.005 -0.3825 0.51 0 0 Z " fill="#3D8B3C" transform="translate(262,135)"/>
<path d="M0 0 C-2 2 -2 2 -3.9453125 2.1953125 C-5.96354167 2.13020833 -7.98177083 2.06510417 -10 2 C-10 1.34 -10 0.68 -10 0 C-6.30458414 -0.95024979 -3.69541586 -0.95024979 0 0 Z " fill="#74AD57" transform="translate(212,58)"/>
<path d="M0 0 C-2 3 -2 3 -5.125 3.6875 C-6.07375 3.790625 -7.0225 3.89375 -8 4 C-7.67 3.01 -7.34 2.02 -7 1 C-4.53721199 -0.231394 -2.7204945 -0.07159196 0 0 Z " fill="#3495C6" transform="translate(83,18)"/>
<path d="M0 0 C0.66 0 1.32 0 2 0 C2.185625 0.9590625 2.185625 0.9590625 2.375 1.9375 C2.684375 2.9584375 2.684375 2.9584375 3 4 C3.66 4.33 4.32 4.66 5 5 C3.02 5.99 3.02 5.99 1 7 C0.67 4.69 0.34 2.38 0 0 Z " fill="#089BE1" transform="translate(176,16)"/>
<path d="M0 0 C2.31 0.66 4.62 1.32 7 2 C6.34 2.66 5.68 3.32 5 4 C3.68 4 2.36 4 1 4 C0.67 2.68 0.34 1.36 0 0 Z " fill="#1F7FC9" transform="translate(158,251)"/>
<path d="M0 0 C2.25245881 2.68841859 3.88213958 4.64641875 5 8 C4.01 8 3.02 8 2 8 C0.23537317 4.91190305 0 3.76687864 0 0 Z " fill="#054B98" transform="translate(29,194)"/>
<path d="M0 0 C1.32 1.32 2.64 2.64 4 4 C2.02 4.99 2.02 4.99 0 6 C-1.125 2.25 -1.125 2.25 0 0 Z " fill="#3E8B3F" transform="translate(195,179)"/>
<path d="M0 0 C0 0.99 0 1.98 0 3 C-2.9719385 1.87548273 -5.33440687 0.77706209 -8 -1 C-4.37673261 -2.2077558 -3.35853631 -1.54311128 0 0 Z " fill="#0887D7" transform="translate(136,134)"/>
<path d="M0 0 C3.36591866 1.44253657 5.51047079 3.33264727 8 6 C5.6875 5.8125 5.6875 5.8125 3 5 C1.1875 2.4375 1.1875 2.4375 0 0 Z " fill="#6BB4D7" transform="translate(125,123)"/>
<path d="M0 0 C1.65 0 3.3 0 5 0 C0.25 4.875 0.25 4.875 -2 6 C-1.34 4.02 -0.68 2.04 0 0 Z " fill="#78A76A" transform="translate(196,125)"/>
<path d="M0 0 C0 0.99 0 1.98 0 3 C0.66 3 1.32 3 2 3 C1.67 3.99 1.34 4.98 1 6 C-1.5 4.625 -1.5 4.625 -4 3 C-4 2.34 -4 1.68 -4 1 C-2 0 -2 0 0 0 Z " fill="#0C8DD6" transform="translate(109,113)"/>
<path d="M0 0 C1.98 0.99 1.98 0.99 4 2 C3.67 2.66 3.34 3.32 3 4 C4.32 4.33 5.64 4.66 7 5 C4.92446352 5.5534764 3.15634036 6 1 6 C0.67 4.02 0.34 2.04 0 0 Z " fill="#6EA846" transform="translate(152,89)"/>
<path d="M0 0 C1.65 0.33 3.3 0.66 5 1 C5 1.66 5 2.32 5 3 C2.69 3 0.38 3 -2 3 C-1.34 2.01 -0.68 1.02 0 0 Z " fill="#09A9E3" transform="translate(98,52)"/>
<path d="" fill="#FFFFFF" transform="translate(0,0)"/>
<path d="" fill="#FFFFFF" transform="translate(0,0)"/>
<path d="" fill="#FFFFFF" transform="translate(0,0)"/>
<path d="" fill="#FFFFFF" transform="translate(0,0)"/>
<path d="" fill="#FFFFFF" transform="translate(0,0)"/>
<path d="" fill="#FFFFFF" transform="translate(0,0)"/>
<path d="" fill="#FFFFFF" transform="translate(0,0)"/>
<path d="" fill="#FFFFFF" transform="translate(0,0)"/>
<path d="" fill="#FFFFFF" transform="translate(0,0)"/>
<path d="" fill="#FFFFFF" transform="translate(0,0)"/>
<path d="" fill="#FFFFFF" transform="translate(0,0)"/>
<path d="" fill="#FFFFFF" transform="translate(0,0)"/>
<path d="" fill="#FFFFFF" transform="translate(0,0)"/>
<path d="" fill="#FFFFFF" transform="translate(0,0)"/>
<path d="" fill="#FFFFFF" transform="translate(0,0)"/>
<path d="" fill="#FFFFFF" transform="translate(0,0)"/>
<path d="" fill="#FFFFFF" transform="translate(0,0)"/>
<path d="" fill="#FFFFFF" transform="translate(0,0)"/>
<path d="" fill="#FFFFFF" transform="translate(0,0)"/>
<path d="" fill="#FFFFFF" transform="translate(0,0)"/>
<path d="" fill="#FFFFFF" transform="translate(0,0)"/>
<path d="" fill="#FFFFFF" transform="translate(0,0)"/>
<path d="" fill="#FFFFFF" transform="translate(0,0)"/>
<path d="" fill="#FFFFFF" transform="translate(0,0)"/>
<path d="" fill="#FFFFFF" transform="translate(0,0)"/>
<path d="" fill="#FFFFFF" transform="translate(0,0)"/>
<path d="" fill="#FFFFFF" transform="translate(0,0)"/>
<path d="" fill="#FFFFFF" transform="translate(0,0)"/>
<path d="" fill="#FFFFFF" transform="translate(0,0)"/>
</svg>
